<?xml version="1.0" encoding="utf-8"?>

<!DOCTYPE svg PUBLIC "-//W3C//DTD SVG 1.1//EN" "http://www.w3.org/Graphics/SVG/1.1/DTD/svg11.dtd">
<svg version="1.1" id="Layer_1" xmlns="http://www.w3.org/2000/svg" xmlns:xlink="http://www.w3.org/1999/xlink" x="0px" y="0px"
	 viewBox="0 0 2629.38 1407.493" enable-background="new 0 0 2629.38 1407.493" xml:space="preserve">
<g>
	<path fill="#090E1C" enable-background="new    " d="M1076.774,26.486c4.195-0.281,14.988,8.57,18.566,15.133
		c1.417,3.662-0.687,7.444-0.757,11.171c2.338,1.084,5.324,0.109,7.231,2.163c-4.941,8.071-5.426,1.216,0.174,9.427
		c1.096,6.289-6.544,16.856-13.04,18.065c-2.282-4.213,2.234-6.771,0.926-15.879c-2.8-9.019-13.72-4.624-16.299-5.973
		c-3.063-3.64-1.224-10.877,2.201-9.694c2.565,0.928,7.834,4.674,8.615,0.621c1.047-7.19,0.056-12.602-4.85-18.735
		C1078.158,30.927,1076.518,28.971,1076.774,26.486z"/>
	<path fill="#090E1C" enable-background="new    " d="M1165.255,46.354c0.583-0.48,1.368-0.578,2.087-0.839
		c10.859,32.612,5.138,12.903,8.059,31.001c1.663,3.261,11.077-0.766,3.362,7.547c1.019,2.272,2.507,4.283,4.071,6.207
		c4.294,5.825,5.727,13.106,9.171,19.383c-6.474,4.706-20.698-13.295-24.397-21.1c-1.468-3.541-8.06,2.91-11.482,2.398
		c-3.101-2.768-4.327-7.373-3.455-11.395c4.216-0.468,10.918,1.733,11.438-1.7C1161.906,66.733,1160.366,58.598,1165.255,46.354z"/>
	<path fill="#090E1C" enable-background="new    " d="M583.693,50.131c1.242-1.87,15.946,5.14,19.165,13.689
		c-0.305,2.616-0.725,5.231-0.539,7.88c1.526,0.643,3.035,1.319,4.556,1.989c-0.131,1.548-1.063,2.768-2.082,3.858
		c2.006,3.87,7.084,5.556,5.226,11.825c-1.355,4.129-4.402,9.75-8.724,12.632c-3.495-4.651,7.819-25.827-15.918-22.866
		c-0.698-0.97-1.542-2.076-1.242-3.346c4.497-2.31,18.169,0.537,2.381-21.912C585.666,52.572,583.868,51.782,583.693,50.131z"/>
	<path fill="#090E1C" enable-background="new    " d="M99.484,53.787c28.01,6.512,18.381,8.377,22.321,15.776
		c1.531,0.807,3.319,0.888,4.953,1.395c-0.163,2.43-1.989,4.212-2.959,6.338c1.215,3.988,6.928,8.477-2.986,15.552
		c-2.888,2.327-6.027,4.447-9.624,5.498c-1.147-4.746,11.878-13.51,4.043-18.893c-2.561-1.275-5.537-1.057-8.261-0.474
		c-3.052-0.251-4.092-3.962-3.945-6.561c0.059-0.021,6.038-0.399,9.912-1.346c2.285-8.21-7.455-10.622-14.174-15.983
		C98.944,54.763,99.304,54.114,99.484,53.787z"/>
	<path fill="#090E1C" enable-background="new    " d="M1075.853,80.086c1.49-0.554,4.905-5.275,12.675,5.853
		c9.512,12.151,1.917,10.932,3.553,18.522c1.858,0.267,4.152,0.251,5.482,1.776c0.283,2.038-1.368,3.34-3.03,4.049
		c1.199,1.406,2.605,2.676,3.547,4.278c1.188,5.436-2.53,16.675-8.011,15.176c-3.102,0.229-0.207-3.239-6.447-14.893
		c-2.875-3.443-12.432-0.794-14.185-0.948c-1.27-0.752-2.163-2.136-2.839-3.422c-0.104-1.864,0.267-3.776,0.97-5.498
		C1073.317,101.365,1088.244,115.528,1075.853,80.086z"/>
	<path fill="#090E1C" enable-background="new    " d="M1709.135,109.327c0.703,2.637,0.801,5.449,1.864,8
		c1.973,1.52,4.975,0.801,6.757,2.708c0.245,0.785,0.224,1.635,0.191,2.458c-2.31,2.848-4.552,2.3-1.689,5.978
		c4.469,4.858-4.944,17.769-15.378,20.446c-0.736-0.954-1.591-1.842-2.016-2.964c1.264-4.316,4.354-8.196,4.136-12.882
		c-2.324-6.799-7.944-2.826-12.495-3.242c-2.773,0.475-7.253-6.5-3.27-8.392c3.3-0.814,10.405,1.186,9.493-3.379
		c-2.095-11.547-8.601-8.855-14.326-16.882C1686.111,97.89,1705.767,104.585,1709.135,109.327z"/>
	<path fill="#090E1C" enable-background="new    " d="M855.066,115.005c1.024-0.338,2.071-0.654,3.112-0.986
		c3.391,5.188,14.48,12.548,15.672,18.244c1.144,2.964-0.027,6.152,0.545,9.193c0.92,2.426,8.722,3.068,6.61,5.798
		c-0.572,1.373-2.267,1.455-3.493,1.842c1.104,3.605,6.939,7.456,0.082,18.206c-1.324,3.34-3.439,6.485-6.632,8.288
		c-5.233-2.438-2.699-2.734-2.229-13.28c0.024-1.982-1.472-11.718-9.645-10.768c-2.512,0.278-4.953,2.163-7.487,1.357
		c-3.068-2.768-3.221-7.591-1.727-11.215c3.613,0.098,7.002,1.548,10.588,1.935c0.518-0.523,1.046-1.046,1.591-1.569
		c-1.253-5.562,1.772-8.99-5.765-22.266C855.426,118.34,855.088,116.673,855.066,115.005z"/>
	<path fill="#090E1C" enable-background="new    " d="M523.843,116.82c2.352-0.479,18.548,2.276,21.639,6.408
		c1.264,1.428,1.733,3.825,3.798,4.343c0.937,0.403,2.06,0.49,2.845,1.21c0.708,2.414-1.842,3.885-2.474,5.994
		c-0.578,2.659,0.425,5.542-0.561,8.13c-1.948,3.649-11.138,15.87-15.029,17.836c0.3-5.707,7.965-22.028,3.406-25.149
		c-2.261-1.09-4.572,0.965-6.899,0.523c-1.673-2.049-3.101-4.964-1.809-7.569c2.469-0.005,4.937-0.011,7.406-0.163
		c0.262-0.67,0.529-1.335,0.807-1.994C533.483,122.046,527.903,120.482,523.843,116.82z"/>
	<path fill="#090E1C" enable-background="new    " d="M212.122,117.425c5.485,4.347,11.99,28.103,12.583,29.105
		c1.575,1.286,4.795,1.199,4.926,3.744c-1.242,1.199-2.817,1.967-4.223,2.948c0.118,1,3.655,18.675,2.114,28.342
		c-7.207-2.634-8.454-13.665-9.073-15.291c-5.445-16.93-2.084-11.647-12.07-12.109c-1.308-1.853-2.806-3.558-4.114-5.411
		c0.796-0.621,1.357-1.678,2.327-1.994c14.488,1.314,7.454-2.768,7.515-11.106C211.877,129.599,210.21,123.359,212.122,117.425z"/>
	<path fill="#090E1C" enable-background="new    " d="M768.459,120.264c4.667,20.993,0.242,19.929-2.191,27.432
		c1.678,0.687,3.264,1.575,4.708,2.692c-0.572,1.771-1.967,2.959-3.324,4.12c-0.796,1.455,0.556,2.948,1.237,4.18
		c3.368,5.003,5.809,11.024,5.035,17.155c-0.496,0.79-1.341,1.226-2.065,1.749c-3.771-4.599-8.261-8.528-11.983-13.166
		c-2.403-2.567-3.967-5.771-6.349-8.343c-5.628-2.468-10.312-0.216-11.891-2.3c-1.548-2.082-0.741-4.915,0.839-6.719
		c2.62-1.157,7.727,2.302,11.694-0.174C754.97,145.638,764.568,122.372,768.459,120.264z"/>
	<path fill="#090E1C" enable-background="new    " d="M592.396,123.31c5.328,15.883-1.69,24.719-2.539,29.04
		c1.58,0.256,3.34,0.589,4.392,1.935c0.333,1.809-1.21,2.921-2.463,3.874c1.732,3.631,12.289,13.112,9.624,21.4
		c-2.695-1.754-16.914-18.688-21.421-19.296c-3.722-0.883-7.558-1.177-11.215-2.311c0.267-1.074-0.005-2.436,0.986-3.177
		c3.063-1.164,4.804,0.473,10.877-3.787C581.117,149.986,589.731,126.266,592.396,123.31z"/>
	<path fill="#090E1C" enable-background="new    " d="M966.451,137.8c2.445-0.125,9.637,15.578,10.446,17.988
		c3.701,14.501-0.995,13.86,8.288,15.983c0.278,0.654,0.572,1.313,0.877,1.973c-0.605,0.839-1.199,1.678-1.776,2.529
		c5.33,3.41,11.966,10.433,11.651,16.849c-29.66-14.198-17.397-13.76-35.459-11.242c-3.317-2.252-5.796-7.675-1.21-8.06
		c2.883,0.016,5.771-0.48,8.452-1.564C967.675,171.256,963.336,144.722,966.451,137.8z"/>
	<path fill="#090E1C" enable-background="new    " d="M1353.471,138.65c2.779-0.251,4.795,2.659,5.199,5.155
		c4.186,0.902,15.251,14.304,17.585,18.888c1.706,0.158,3.417,0.311,5.128,0.534c0.492,6.258-3.581,5.591-2.959,8.942
		c1.913,21.343-1.074,4.955-0.812,28.729c-1.001,0.507-5.808,4.886-6.223-3.951c-0.128-3.286-4.099-11.335-4.932-18.495
		c-0.3-1.885-0.681-3.907-2.261-5.15c-7.987,8.188-12.665-2.58-10.801-5.319c2.458-2.572,6.343-1.842,9.558-2.37
		C1363.125,160.85,1348.891,143.89,1353.471,138.65z"/>
	<path fill="#090E1C" enable-background="new    " d="M1165.844,140.519c8.647,7.66,2.151,31.567,5.558,34.244
		c0.902,1.157,8.124,0.521,6.038,4.054c-0.55,1.82-2.545,1.88-4.071,2.3c1.21,3.793,3.618,7.051,6.163,10.06
		c1.891,2.932,3.052,6.261,4.724,9.324c-0.703,0.42-1.368,0.894-2.098,1.221c-1.886-0.453-8.884-1.169-15.193-9.002
		c-11.896-14.223-10.731-3.807-17.917-2.899c-2.223-3.226-5.144-6.697-4.692-10.866c0.845-1.738,0.049-4.278,1.891-5.4
		c3.34,0.18,6.632,1.106,9.368,3.106c3.458-4.729,1.138-19.921,6.212-29.683C1163.397,144.972,1164.558,142.71,1165.844,140.519z"/>
	<path fill="#090E1C" enable-background="new    " d="M387.641,153.903c3.233,0.081,16.787,20.794,17.787,21.699
		c1.749,1.984,5.024,1.128,6.724,3.215c0.164,1.471-1.335,2.376-1.684,3.716c0.82,3.149,7.127,9.838,8.539,18.533
		c-1.605,7.65-15.667-15.973-23.53-17.231c-2.054-0.338-4.071,0.632-6.131,0.311c-2.384-1.376-5.964-5.253-3.891-6.616
		c2.621-0.076,5.28,0.3,7.88-0.251c0.73-0.49,1.313-1.166,1.951-1.771C388.752,166.677,387.144,158.818,387.641,153.903z"/>
	<path fill="#090E1C" enable-background="new    " d="M1449.151,175.019c5.759-0.553,11.865,21.536,9.607,29.007
		c-0.594,1.956-0.234,3.989,0.022,5.967c4.387,0.448,6.789,2.506,6.937,3.629c-0.746,1.564-2.332,2.512-3.673,3.515
		c8.427,6.986,11.937,24.573,4.687,22.582c-19.128-13.794-9.538-22.365-29.285-18.566c5.96,12.208,5.076,2.751,14.55,23.95
		c1.738,0.12,3.646-0.229,5.259,0.643c3.707,5.949-5.013,5.407-3.564,11.335c2.204,8.289-4.723,25.577-9.051,29.105
		c-5.246-5.635-1.423-21.269-5.493-30.473c-3.384-0.321-5.495,1.656-11.776,1.973c-4.72-5.489-2.295-9.559,0.022-10.523
		c0,0,4.902,0.14,10.468-0.534c-0.739-1.668-6.79-17.557-4.757-27.072c-3.549-12.651,0.749-8.238,9.476-8.572
		C1448.065,211.107,1443.762,179.042,1449.151,175.019z"/>
	<path fill="#090E1C" enable-background="new    " d="M465.104,176.365c14.275-0.877,17.488,7.145,21.171,10.436
		c1.815,1.084,3.858,1.831,5.373,3.39c-0.398,0.643-0.752,1.319-1.215,1.913c-9.382,6.194,2.97,9.464-13.956,22.664
		c-2.485,1.929-4.354,4.654-7.275,6.005c3.865-8.223,6.558-17.573,6.125-26.19c-2.152-1.875-5.041-1.869-7.711-1.673
		c-0.948-1.842-2.038-3.76-2.011-5.891c2.103-2.522,4.595,2.091,7.542-3.166C470.63,181.166,467.202,179.444,465.104,176.365z"/>
	<path fill="#090E1C" enable-background="new    " d="M684.844,182.262c1.591-2.054,2.747-4.37,3.542-6.839
		c2.049,2.992,1.439,6.937,2.975,10.087c8.199,9.261,10.859,2.587,15.732,19.683c1.836,0.48,4.943-0.087,5.417,2.365
		c-1.182,2.261-3.515,3.591-4.953,5.629c-0.567,2.044,0.234,4.191-0.131,6.272c-0.486,1.183-5.005,8.899-6.534,9.362
		c-5.537,1.46-8.828,7.351-14.642,8.19c0.463-5.853,5.509-9.902,6.675-15.547c-4.054-3.172-7.945-6.572-12.147-9.547
		c-4.933-3.095-13.502,3.165-12.555-5.94c-0.109-1.117,0.779-1.924,1.711-2.349c3.61-0.178,8.045,1.907,10.081-4.888
		C681.482,193.198,684.158,187.994,684.844,182.262 M690.424,196.01c-0.354,2.098-1.657,4.174-1.117,6.332
		c0.97,1.324,2.632,1.826,4.12,2.343C694.88,201.465,693.19,196.223,690.424,196.01z"/>
	<path fill="#090E1C" enable-background="new    " d="M939.962,196.152c4.171-0.077,17.255,5.651,19.596,6.73
		c10.405,5.154,0.679,6.242,14.588,11.313c-0.131,0.894-0.055,1.902-0.719,2.605c-0.763,1.45-2.708,1.749-3.297,3.302
		c-1.33,2.741,0.654,5.847-0.605,8.615c-1.662,4.584-10.593,18.589-15.166,19.972c-1.728-2.665,4.769-20.94,2.131-26.931
		c-2.893-3.019-9.851,1.437-11.444-1.64c-1.384-2.174-2.643-5.264-0.921-7.586c2.796,0.18,5.547,0.741,8.338,1.057
		c0.638-0.719,1.297-1.433,1.962-2.147C948.476,202.802,945.727,204.185,939.962,196.152z"/>
	<path fill="#090E1C" enable-background="new    " d="M1730.3,206.936c0.547,1.001,11.162,22.916,11.716,30.538
		c2.218,1.041,4.785,0.594,7.051,1.482c2.579,3.818,1.567,3.606-2.725,6.207c0.352,1.051,9.005,24.805,9.068,28.675
		c-0.801,0.409-1.542,0.883-2.338,1.242c-8.47,0.261-20.766-26.055-21.383-27.056c-4,0.289-8.082,1.531-12.027,0.267
		c-0.855-2.114-1.864-4.18-2.354-6.414c3.596-2.223,8.31-0.441,11.847-2.823C1724.257,230.37,1721.786,209.59,1730.3,206.936z"/>
	<path fill="#090E1C" enable-background="new    " d="M181.181,213.655c29.822,5.607,21.577,14.081,24.566,17.765
		c1.433,2.207,4.419,2.087,6.359,3.607c1.302,2.005-1.253,3.079-2.594,3.994c1.128,2.376,3.607,4.359,3.215,7.22
		c-0.518,3.954-6.381,14.96-11.912,14.904c-4.49-6.443,4.187-13.458-2.714-19.389c-6.428-2.822-14.976,0.64-14.283-7.406
		c3.155-0.719,6.828,1.542,9.509-0.926c2.576-11.292-10.553-12.269-12.806-18.174C180.74,214.718,180.958,214.184,181.181,213.655z"
		/>
	<path fill="#090E1C" enable-background="new    " d="M1642.936,215.159c3.299-2.671,0.792-2.165,8.087-0.425
		c28.019,5.768,17.822,6.749,24.228,11.373c1.611,1.748,10.414,0.374,9.308,4.24c-1.368,2.218-3.509,3.793-5.357,5.58
		c4.897,13.297,0.465,13.596-5.951,31.138c-0.681,2.016-3.27,2-4.986,1.618c-2.908-6.296,2.379-14.841-3.575-28.925
		c-4.669-0.408-10.295,4.68-13.275,0.921c-1.607-3.396-2.722-8.101,1.03-7.994c3.041-0.027,5.962-0.97,8.855-1.842
		C1656.705,221.233,1645.784,220.321,1642.936,215.159z"/>
	<path fill="#090E1C" enable-background="new    " d="M1875.793,213.279c1.583,0.43,11.509,23.796,11.852,25.601
		c0.148,0.976,1.136,8.334,1.482,9.258c4.184,0.192,7.694-1.563,9.765,2.523c-1.39,1.809-3.706,3.041-4.365,5.308
		c1.33,4.921,6.147,7.902,7.4,12.871c1.212,2.104,6.067,12.389,4.311,14.054c-5.235,1.601-25.228-21.202-26.228-21.792
		c-4.659-0.872-8.583,3.34-13.247,2.381c-4.475-0.726-6.598-8.24-0.954-8.67c3.531-0.539,6.877-1.869,9.945-3.7
		c-0.618-2.341-5.146-14.265-3.286-27.307C1872.816,220.782,1870.448,212.932,1875.793,213.279z"/>
	<path fill="#090E1C" enable-background="new    " d="M882.564,219.938c1.01,0.323,15.246,6.887,20.62,10.991
		c3.122,1.902,2.447,6.31,4.883,8.763c1.46,1.024,3.439,1.123,4.757,2.414c0.856,1.918-1.444,2.643-2.398,3.853
		c-1.155,0.812-0.741,2.321-0.632,3.504c2.384,10.235-13.652,23.92-16.582,24.876c-0.121-6.124,8.135-13.112,4.278-25.835
		c-3.526-0.839-7.035,0.501-10.545,0.485c-2-1.275-3.373-4.054-2.245-6.316c1.983-1.898,8.681,0.309,11.324-3.166
		c-0.693-1.002-4.903-10.965-13.525-17.329C882.509,221.426,882.531,220.685,882.564,219.938z"/>
	<path fill="#090E1C" enable-background="new    " d="M1827.55,221.154c4.478,3.351,9.984,13.713,10.343,14.713
		c1.902,3.891,0.55,8.294,0.115,12.365c7.014-0.496,2.767-0.367,8.321,1.575c-1.733,1.499-2.676,3.635-3.951,5.482
		c-0.719,1.39,0.659,2.414,1.542,3.286c10.295,9.67,6.3,9.477,9.798,23.176c-7.837,0.191-19.168-17.863-24.735-20.926
		c-0.589,0.801-1.123,1.624-1.613,2.474c-0.469,0.185-0.905,0.371-1.324,0.561c-1.085,2.361-0.551,2.909-6.19,1.924
		c-3.869-2.692-6.899-7.455-5.575-12.316c3.433-2.747,8.599,1.346,11.956-1.853c0-0.001-1.019-26.549-1.019-26.549
		C1825.316,223.448,1826.607,222.342,1827.55,221.154z"/>
	<path fill="#090E1C" enable-background="new    " d="M430.708,244.646c0.403,0.452,0.785,0.937,1.139,1.444
		c4.376,15.744-1.659,19.85-3.351,24.707c1.678,1.341,4.387,1.27,5.428,3.346c-0.48,1.253-1.351,2.294-2.093,3.389
		c3.402,4.286,6.581,2.93,11.318,13.825c-0.163,0.36-0.49,1.074-0.654,1.433c-5.837-0.057-15.884-13.186-29.421-12.73
		c-0.785,2.888,0.387,5.858,1.482,8.512c0.981,2.719,4.065,3.346,6.359,4.528c-0.033,0.698-0.054,1.395-0.071,2.098
		c-0.877,0.828-1.804,1.618-2.561,2.561c-0.519,1.989,6.567,20.95,4.033,29.617c-12.163-10.58-15.706-25.691-16.73-27.181
		c-3.221-1.678-6.844,0.294-10.228,0.038c-4.058-1.506-5.38-5.797-3.313-6.479c3.26-1.583,4.599,0.783,11.444-2.937
		c-3.928-8.825-7.619-21.327-4.774-30.522c1.28,1.511,7.07,10.572,7.82,12.463C422.081,278.476,419.476,257.863,430.708,244.646z"/>
	<path fill="#090E1C" enable-background="new    " d="M1024.607,247.305c0.013,0.014,11.488,17.951,11.852,18.751
		c1.221,2.556,1.242,5.646,2.953,7.967c1.847,1.221,4.398,0.861,6.147,2.283c0.245,2.376-2.523,2.801-4.043,3.847
		c0.218,2.289,0.638,4.556,1.379,6.735c1.499,4.452,0.507,9.188,0.845,13.776c0.992,0.894,2.065,1.749,2.817,2.883
		c-0.692,1.804-2.207,3.346-2.272,5.357c0.578,2.414,2.599,4.458,2.202,7.101c-0.754,6.493-10.21,15.505-14.25,16.283
		c-0.866-0.381-1.569-1.03-2.316-1.564c-0.249-3.811,8.931-12.846,0.458-20.468c-5.898-2.034-8.959,3.738-11.264,0.42
		c-1.41-1.874-5.308-4.866-2.278-11.46c3.013,0.632,5.913,1.662,8.806,2.725c0.725-0.681,1.471-1.341,2.251-1.978
		c-3.962-22.176-14.273-11.249-12.081-24.827c4.005-0.191,8.561,0.687,12.06-1.738
		C1027.692,272.397,1020.485,252.172,1024.607,247.305z"/>
	<path fill="#090E1C" enable-background="new    " d="M532.006,249.414c5.925,2.257,15.318,11.243,13.427,17.307
		c-0.403,2.234-2.125,4.528-0.85,6.784c1.875,1.341,5.106,0.725,5.945,3.33c0.986,2.714,4.588,3.667,4.768,6.779
		c0.545,2.992-1.411,7.673-5.106,6.714c-4.39-3.779-3.415-8.865-11.1-7.787c-2.981,0.583-6.054-0.104-9.024,0.583
		c-1.879,0.598-6.659-0.708-7.515-3.351c3.526-1.041,7.111-2.283,10.021-4.61C540.195,263.87,525.884,250.936,532.006,249.414z"/>
	<path fill="#090E1C" enable-background="new    " d="M1155.021,266.362c3.2-0.172,18.186,5.584,22.811,9.793
		c1.853,1.782,0.534,4.567,1.471,6.735c0.348,2.543,2.931,1.265,6.85,4.038c-5.826,4.216,4.048,7.119,7.907,12.25
		c2.087,2.294,1.831,6.207,4.768,7.809c2.169,0.665,4.703,0.371,6.49,2.049c-1.439,2.147-3.989,3.079-5.58,5.057
		c-0.55,2.469,0.561,4.91,0.479,7.395c0.075,4.65-8.275,21.646-12.027,22.577c-1.393-1.32-0.245-7.042-0.043-20.697
		c0.109-2.681-0.752-5.264-1.297-7.858c-3.711-0.518-7.09,1.226-10.675,1.738c-1.461-1.804-3.014-3.558-4.861-4.97
		c-1.689,1.553-3.613,2.817-5.602,3.94c-2.674-6.49,8.231-9.458,2.67-23.53c-3.297-1.466-6.708,0.343-10.081-0.131
		c-2.539-1.193-4.321-4.981-2.752-7.52c5.679-0.808,7.108,1.725,11.046-1.738c-3.78-14.335-2.422-5.162-10.959-14.904
		C1155.376,267.729,1155.169,267.048,1155.021,266.362 M1178.535,305.575c1.172,1.471,3.182,2.011,4.986,2.082
		c0.73-0.583,1.341-1.308,1.995-1.984c-1.248-1.439-2.599-2.779-4.06-3.983C1180.432,302.949,1179.298,304.137,1178.535,305.575z"/>
	<path fill="#090E1C" enable-background="new    " d="M1477.531,269.054c1.199,0.027,2.419,0.082,3.646,0.169
		c0.394,1.739,7.351,15.454,7.82,16.245c3.145,4.841,0.405,11.199,0.474,14.103c3.705-0.116,2.776-1.236,6.986,2.152
		c-4.671,6.778,0.572,7.225,3.101,11.395c2.395,2.776,7.038,17.597,5.706,21.225c-0.856-0.153-1.695-0.294-2.518-0.425
		c-3.19-5.279-19.037-20.961-20.037-21.601c-1.886-0.512-3.286,0.926-4.567,2.022c-3.514,1.182-9.543,0.7-10.621-4.823
		c0.959-1.913,3.346-1.885,5.057-2.752c2.561-0.736,4.283-2.855,6.332-4.425c-3.226-4.807,0.015-13.527-1.793-17.988
		C1477.689,274.725,1475.621,276.592,1477.531,269.054z"/>
	<path fill="#090E1C" enable-background="new    " d="M2445.988,275.353c2.764-2.371,2.704,0.532,14.812,14.692
		c0.267,0.997,0.376,2.06,0.965,2.954c2.153,3.471-0.545,8.141,2.289,11.335c1.678,1.025,3.711,1.275,5.629,1.717
		c-0.251,1.951-1.488,3.417-3.095,4.436c0.419,1.88,0.098,4.06,1.515,5.596c1.204,1.373,3.297,2.621,2.779,4.763
		c-0.507,3.237,0.877,6.468,0.305,9.689c-3.262,4.26-0.638,7.252-4.196,12.294c-6.972-5.033-10.712-31.699-18.49-30.053
		c-2.54,0.414-4.932,1.542-7.488,1.727c-5.172-3.577-7.297-8.899-2.398-15.749c3.433,0.708,6.174,3.204,9.678,3.684
		C2448.367,298.161,2444.715,278.555,2445.988,275.353z"/>
	<path fill="#090E1C" enable-background="new    " d="M352.084,278.023c0.992-0.741,1.842-2.114,3.27-1.809
		c12.414,11.841,7.023,21.282,7.117,24.98c1.395,2.779,6.441-0.109,7.487,3.351c-1.166,1.46-3.161,2.212-3.793,4.076
		c9.576,6.324,17.427,16.839,8.708,14.659c-14.174-5.792-14.151-14.904-26.255-7.983c-1.757,1.382-6.379-2.435-7.972-9.188
		c3.756-2.804,7.473,2.177,11.455-2.643c-0.185-1.94,0.136-3.804,0.948-5.569C354.474,282.824,352.298,285.97,352.084,278.023z"/>
	<path fill="#090E1C" enable-background="new    " d="M280.681,298.807c24.745,6.149,7.361,2.914,24.98,11.814
		c-0.605,1.564-1.891,2.627-3.133,3.678c-1.771,1.313-0.529,3.738-0.638,5.564c-0.551,6.791-9.281,18.327-12.392,21.906
		c0.272-8.19,3.629-16.234,2.022-24.462c-2.57-3.509-3.202-1.452-8.948-2.311c-1.49-1.154-3.437-6.267-1.542-6.365
		c2.027-0.278,4.071,0.305,6.114,0.038c0.36-0.638,0.752-1.259,1.155-1.869c-1.826-2.796-4.403-5.079-7.613-6.125
		C280.681,300.05,280.676,299.428,280.681,298.807z"/>
	<path fill="#090E1C" enable-background="new    " d="M2274.24,301.701c3.516-1.314,5.563,2.836,13.705,14.73
		c1.654,4.35,2.626,7.292,1.112,14.779c1.592,1.891,4.054,0.785,6.163,0.883c6.674,2.159-1.713,5.839-3.302,8.19
		c0.54-0.071,1.112-0.142,1.711-0.213c-0.321,0.458-0.61,0.926-0.866,1.401c4.671,5.646,6.058,7.561,5.177,14.588
		c-1.907,4.51,0.841,6.07-4.648,9.961c0.769,3.956,2.072,2.465,6.507,3.493c0.872,0.518,1.063,1.689,1.357,2.605
		c-0.387,0.965-1.444,1.324-2.212,1.869c0.011,0.414,0.054,0.834,0.125,1.259c-0.534-0.038-1.035-0.071-1.51-0.098
		c0.447,2.033,0.85,4.158,2.191,5.842c3.754,4.824,4.972,13.566,8.278,21.16c-7.831,4.803-19.821-13.951-24.217-22.043
		c-6.86,0.759-11.625,4.091-14.517-0.872c-1.09-2.131-2.49-4.888-0.42-6.915c3.526-1.308,7.395-0.093,11.052-0.845
		c0.24-0.534,0.501-1.063,0.801-1.586c-6.098-11.676-2.114-18.035-3.695-26.168c-5.075-1.335-13.35,1.462-15.825-2.256
		c-1.057-8.13,3.836-5.102,9.171-6.447c9.017-2.214,4.704-17.08,4.256-21.737c-0.365-1.777,1.101-3.602-0.115-5.215
		C2273.227,306.109,2273.412,303.793,2274.24,301.701z"/>
	<path fill="#090E1C" enable-background="new    " d="M1974.607,305.826c2.53-2.114,2.591-3.459,11.885,13.416
		c2.369,4.131,1.342,5.525,2.3,15.22c3.903,1.831,3.532-0.674,7.308,2.73c-0.218,1.133-1.488,2.779-0.147,3.64
		c2.343,2.005,5.493,3.667,6.294,6.899c-0.055,1.379-0.207,3.319-1.635,3.945c-10.568-0.117-14.807-9.67-27.241-5.068
		c-7.918,2.761-11.543-4.654-8.937-5.744c11.097-4.532,12.352,2.629,10.125-17.329c-0.082-3.232-1.673-6.817,0.512-9.705
		C1974.149,311.373,1972.133,307.989,1974.607,305.826z"/>
	<path fill="#090E1C" enable-background="new    " d="M732.968,305.755c0.725,0.147,1.455,0.332,2.18,0.55
		c0.552,1,9.972,18.472,10.599,21.182c0.845,2.643-0.174,5.727,1.717,8.032c1.001,0.081,7.191-0.053,6.332,2.185
		c-1.608,1.88-4.049,2.959-5.248,5.199c-0.158,1,0.796,25.466-5.575,33.394c-4.42-4.208-7.141-25.626-7.313-31.377
		c-3.482-0.24-6.648,1.7-10.109,1.624c-3.413-0.938-5.692-8.616,2.114-8.218c2.381-0.185,5.117-0.109,7.041-1.755
		C734.672,335.571,729.787,312.647,732.968,305.755z"/>
	<path fill="#090E1C" enable-background="new    " d="M1338.796,311.613c5.464-0.534,18.029,5.538,22.005,11.111
		c0.278,2.823-0.027,5.673,0.065,8.507c1.913,1.232,4.196,1.651,6.196,2.725c-0.583,1.428-1.586,2.588-2.921,3.357
		c0.332,2.708,2.926,4.131,3.782,6.588c-1.03,6.648-5.444,12.653-11.362,15.825c-0.736-0.349-1.46-0.692-2.169-1.014
		c-0.175-4.53,4.84-12.242-1.401-17.945c-6.322-1.561-14.851,7.136-13.465-7.793c3.736-1.597,4.861,1.449,10.37-0.703
		C1349.412,316.126,1340.03,317.885,1338.796,311.613z"/>
	<path fill="#090E1C" enable-background="new    " d="M2060.418,316.414c4.974,2.201,14.328,16.301,15.89,19.323
		c1.428,2.627-0.207,6.109,1.94,8.43c1.989,0.403,4.381-0.67,5.962,1.052c1.09,0.583,0.589,1.967,0.676,2.975
		c-7.394,4.958-1.601,8.622-1.504,13.52c0.062,2.148-0.224,19.743-3.21,23.705c-5.684-2.888-12.184-26.361-12.343-27.378
		c-6.436-1.67-15.608,5.414-16.097-4.921c0.711-4.128,8.37-1.853,13.171-6.147C2064.524,345.974,2057.133,319.66,2060.418,316.414z"
		/>
	<path fill="#090E1C" enable-background="new    " d="M657.946,317.182c23.051,5.817,15.726,17.855,15.645,19.318
		c1.766,0.556,3.607,0.872,5.329,1.58c1.134,2.098-1.079,3.766-2.578,4.855c1.395,2.202,4.294,3.815,3.929,6.784
		c-1.297,5.684-5.929,10.55-11.515,12.196c-0.632-1.15-2.033-2.24-1.45-3.684c6.489-23.794-18.939-2.575-15.879-18.648
		c2.087-0.55,4.24-0.703,6.392-0.572c5.265,0.61,9.969-6.654-1.509-18.849C656.818,319.15,657.374,318.163,657.946,317.182z"/>
	<path fill="#090E1C" enable-background="new    " d="M881.343,320.343c4.993,0.058,21.354,0.937,22.838,6.065
		c3.592,8.872,3.133,4.919,7.804,7.569c1.695,1.826-2.518,3.635-0.512,5.335c5.264,5.909-4.187,12.839-10.572,15.411
		c-0.828-0.038-1.591-0.381-2.36-0.578c0.05-0.553,3.054-6.982,3.76-11.825c-5.416-5.579-17.26,0.244-16.773-7.21
		c2.899-0.774,6.387-0.158,8.686-2.485c0.899-1.809-0.534-3.678-1.373-5.226c-4.109-2.131-8.763-3.161-12.861-5.351
		C880.417,321.471,880.88,320.904,881.343,320.343z"/>
	<path fill="#090E1C" enable-background="new    " d="M1010.613,328.495c4.294,4.899,9.262,20.91,9.64,21.912
		c0.191,3.4-0.109,6.812,0.044,10.218c5.213,3.571,5.346-0.375,7.902,4.25c-1.673,1.079-3.455,1.951-5.144,2.992
		c0.725,2.079,9.803,18.212,7.068,28.146c-0.665,0.044-1.319,0.093-1.956,0.147c-1.727-4.229-5.624-6.926-8.43-10.37
		c-1.664-2.04-7.621-13.264-9.4-15.28c-7.165-0.288-14.817,3.629-13.961-4.665c3.482-0.866,7.068-1.297,10.572-2.087
		C1010.923,361.438,1004.407,339.026,1010.613,328.495z"/>
	<path fill="#090E1C" enable-background="new    " d="M443.372,329.607c5.977,0.044,19.33,4.816,19.247,11.509
		c-0.441,2.349-1.58,4.55-1.509,6.992c2.12,0.474,4.332,0.687,6.207,1.902c-0.85,1.499-1.858,2.894-2.828,4.31
		c13.035,7.666,0.968,20.753-2.158,20.68c-2.081-1.225,0.122-12.177-6.272-16.849c-4.474-0.469-9.019-0.42-13.444,0.441
		c-2.556,0.529-4.528-3.33-2.85-5.09c9.659-3.333,11.375-1.069,12.021-9.591c-1.172-4.844-4.539-8.91-8.626-11.656
		C443.225,331.367,443.307,330.484,443.372,329.607z"/>
	<path fill="#090E1C" enable-background="new    " d="M1643.105,330.37c3.11,1.873,11.311,22.143,11.585,23.143
		c4.8,18.354,2.541,6.831,10.419,12.986c-0.926,1.471-2.43,2.474-3.33,3.929c1.139,2.054,2.763,3.787,4.583,5.27
		c5.128,5.019,8.207,11.629,12.904,17.018c-8.265,5.786-29.175-17.799-32.304-17.787c-3.651-0.322-7.133,1.379-10.763,1.024
		c-1.994-1.226-2.866-3.749-3.052-5.989c3.678-1.384,7.853-1.193,11.242-3.422C1641.399,357.361,1636.719,337.341,1643.105,330.37z"
		/>
	<path fill="#090E1C" enable-background="new    " d="M303.165,333.28c1.368,0.087,1.831,1.618,2.627,2.518
		c10.595,16.353,5.552,18.8,3.308,23.803c1.624,0.621,3.291,1.144,4.904,1.809c0.033,0.654,0.065,1.313,0.104,1.978
		c-1.101,0.899-2.262,1.717-3.433,2.518c0.262,3.749,4.376,5.161,5.575,8.447c1.737,3.366,3.43,28.452-11.836-0.779
		c-7.467-9.585-10.964-2.896-18.751-7.438c0.305-1.509,0.431-3.063,0.981-4.507c4.613-1.992,12.987,3.922,13.623-6.332
		c0.098-4.795,1.738-9.411,1.515-14.223C301.743,336.013,300.592,336.568,303.165,333.28z"/>
	<path fill="#090E1C" enable-background="new    " d="M780.721,333.52c0.567-0.185,1.128-0.158,1.689,0.071
		c0.658,1,5.784,13.063,8.163,21.198c0.948,3.346-0.67,6.735-0.147,10.114c1.76,1.826,4.752,0.698,6.637,2.458
		c-1.155,2.261-3.351,3.716-4.648,5.891c1.224,4.472,15.054,32.956-11.357,42.739c-0.676-0.529-1.351-1.052-2.016-1.553
		c12.999-32.47-12.456-7.274-12.855-22.582c5.385-2.022,13.269-0.06,12.686-5.019c-0.209-2.712,0.887-7.488-9.705-10.975
		c-4.101-1.125-4.371-7.674-2.18-8.114c1.883-0.2,14.252,1.325,11.967-3.945C777.156,357.251,779.606,335.543,780.721,333.52z"/>
	<path fill="#090E1C" enable-background="new    " d="M1871.553,335.972c12.203,10.661,13.431,28.851,14.702,31.203
		c2.202,0.076,4.479,0.147,6.507,1.155c0.087,0.948,0,1.962,0.376,2.872c2.343,2.433,8.18,3.222,11.346,8.615
		c-6.67,1.106-12.773-3.112-19.427-2.73c-12.055,0.928-16.542,3.335-20.468-0.234c-0.262-0.79-0.272-1.624-0.333-2.425
		c3.689-1.248,8.147-1.902,10.517-5.357c-2.919-3.812-5.552-30.125-5.531-31.127
		C1869.995,337.285,1870.758,336.615,1871.553,335.972z"/>
	<path fill="#090E1C" enable-background="new    " d="M509.947,349.121c2.745,0.407,16.725,6.276,20.337,9.526
		c1.477,2.06,1.188,5.046,2.73,7.041c1.962,0.807,4.577,0.398,5.793,2.567c-1.46,1.902-3.395,3.335-5.046,5.041
		c-1.553,2.894-0.365,6.752-2.676,9.362c-1.268,1.543-15.404,15.485-17.089,15.896c-0.545-5.089,6.899-15.8,6.583-24.222
		c-3.079-1.967-6.855-0.065-10.125-1.259c-2.278-1.117-2.381-4.479-0.534-6.022c10.451-0.163,6.519,1.403,10.152-2
		C518.241,358.821,512.552,354.881,509.947,349.121z"/>
	<path fill="#090E1C" enable-background="new    " d="M2103.5,352.652c0.905-0.441,1.831-0.888,2.774-1.324
		c20.821,11.957,18.695,15.987,18.119,24.522c0.294,0.605,0.703,1.15,1.117,1.727c2.73-0.316,5.656-0.343,7.847,1.597
		c-0.834,2.087-2.207,3.994-4.447,4.654c8.4,5.797,5.857,4.529,7.727,14.784c-0.196-0.038-0.589-0.109-0.79-0.147
		c-0.272,2.425-0.392,4.861-0.54,7.297c-0.125-0.817-0.223-1.629-0.3-2.43c-0.812,1.989-1.003,4.398-2.997,5.624
		c-1.264-0.392-2.512-0.768-3.755-1.095c-0.49-3.743-4.836-17.917-16.087-16.975c1.478,3.725,7.659,5.495,8.828,10.207
		c0.948,2.605,0.196,5.744,2.136,7.978c2.011,0.392,4.659,0.093,5.624,2.392c-0.403,2.37-2.91,3.809-2.981,6.349
		c6.657,6.401,1.833,20.859-1.15,28.184c-8.734,10.977-6.292-26.553-15.536-25.89c-3.629-0.087-7.406,0.409-10.79-1.253
		c-1.035-2.109-0.447-4.3,0.501-6.31c3.144-0.044,6.169-1.003,9.177-1.842c1.885-7.39-20.878-33.128-5.825-25.683
		c2.314,2.151,9.111-2.568,8.839-5.182c-0.917-14.042-0.571-7.298-3.193-15.133C2106.367,360.69,2103.484,357.083,2103.5,352.652z"
		/>
	<path fill="#090E1C" enable-background="new    " d="M2433.247,352.325c0.921,0.594,1.864,1.199,2.812,1.82
		c0.175,12.286,9.221,20.044,6.681,26.816c4.15,5.225,5.099,1.284,9.367,3.771c-0.376,2.725-3.585,3.575-4.288,6.043
		c0.173,2.317,4.069,10.583,6.566,11.019c2.916-9.363,1.802-4.954,6.757-8.229c8.106,16.211,6.531,28.491,7.242,31.819
		c0.91,1.024,2.425,0.823,3.667,1.084c1.924,0.055,2.964,1.913,4.327,3.024c-1.629,1.084-3.509,1.853-4.806,3.351
		c-0.523,2.087,0.016,4.245,1.324,5.94c2.107,2.549,6.247,22.746,6.338,23.748c-1.493,0.104-2.975,0.42-4.425,0.213
		c-1.521-0.67-8.925-7.891-10.539-10.959c-13.724-27.148-9.157-10.024-16.702-12.065c-6.442-2.207-8.812-11.276-3.869-18.108
		c8.898,2.182,6.251,3.807,10.463,3.94c0.515-12.325-9.345-14.387-16.354-24.718c-1.46-2.223-2.267-5.15-4.79-6.43
		c-3.199,0.011-6.136,1.488-9.182,2.223c-4.282,1.59-10.669-11.678-0.158-9.455c2.458,0.24,5.934,0.131,6.888-2.638
		C2428.265,374.54,2426.062,359.605,2433.247,352.325z"/>
	<path fill="#090E1C" enable-background="new    " d="M2165.171,364.347c0.741-0.365,1.537-0.736,2.311-1.133
		c5.299,1.803,18.613,6.842,22.043,11.346c2.744,3.58-0.268,6.508,4.883,8.174c1.695,0.245,3.226,1.052,4.725,1.875
		c-0.305,1.003-0.583,2.005-0.839,3.014c-0.512-0.267-1.03-0.529-1.493-0.768c0.185,7.84,4.585,3.406,1.995,12.277
		c-3.128,3.575-5.929,7.82-10.381,9.852c-1.477,0.185-2.905-0.616-4.3-0.937c-0.409-2.49,1.346-4.419,2.223-6.566
		c0.545-2.158-0.185-4.376-0.071-6.561c-2.207-0.965-4.697-1.766-7.008-0.692c-4.673,2.212-11.858,0.54-11.858-5.591
		c6.143-3.044,19.675,1.068,3.504-17.847C2169.094,368.526,2166.179,367.213,2165.171,364.347z"/>
	<path fill="#090E1C" enable-background="new    " d="M1388.669,374.69c5.574,1.382,13.656,10.41,15.836,14.877
		c2.42,5.545-4.386,12.651,7.493,12.572c0.398,0.621,0.834,1.248,1.264,1.875c-0.91,0.621-1.804,1.242-2.692,1.864
		c1.134,2.741,4.409,3.82,5.264,6.719c1.065,4.068,0.188,8.802-4.213,8.218c-5.888-3.286-1.579-13.311-26.751-10.032
		c-1.7-1.324-2.605-3.248-2.708-5.379c3.455-0.959,7.16-0.082,10.55-1.395c4.194-2.746-1.905-21.075-4.975-26.108
		C1387.088,376.75,1388.211,375.671,1388.669,374.69z"/>
	<path fill="#090E1C" enable-background="new    " d="M1543.872,377.965c13.525,14.942,9.381,26.734,10.784,30.342
		c2.485,0.632,5.379,0.43,7.318,2.436c-1.073,1.03-2.272,1.891-3.466,2.757c7.478,9.676,4.598,2.807,8.441,14.157
		c-0.768,0.42-1.509,0.85-2.245,1.281c-7.138-2.196-12.891-12.46-18.386-12.136c-6.495-0.661-9.85,6.383-13.983-5.422
		c4.062-2.613,8.351,1.941,11.035-2.796C1544.299,398.472,1536.561,379.872,1543.872,377.965z"/>
	<path fill="#090E1C" enable-background="new    " d="M1984.399,385.986c4.201,2.307,12.023,16.44,14.234,21.449
		c0.212-0.349,0.643-1.041,0.855-1.39c-0.632,4.022-1.956,8.011-1.657,12.119c1.194,1.275,3.275,0.572,4.556,1.717
		c0.452,0.414,0.921,0.856,1.406,1.308c-11.757,11.335,6.581,4.237-4.953,35.786c-0.518,1.286-0.692,2.943-2.082,3.613
		c-6.313-0.585-2.137-17.545-10.991-31.579c-4.843,0.047,0.473-1.514-10.321,3.82c-1.838-1.132-6.185-6.409-1.411-14.25
		c1.933-3.36,6.548,1.031,9.569,1.602c0.594-0.349,1.177-0.763,1.793-1.15c0.145-20.449,0.475-17.711-1.613-27.912
		C1983.353,389.376,1983.631,387.588,1984.399,385.986z"/>
	<path fill="#090E1C" enable-background="new    " d="M52.619,392.912c6.355,8.92,2.588,25.079,2.441,28.097
		c8.566,3.872,0.476,5.538,3.368,8.948c0.755,1.013,11.598,14.879,10.283,19.383c-0.496,0.169-0.992,0.343-1.488,0.523
		c-12.665-8.715-9.516-6.706-19.1-17.781c-2.576-2.199-15.834,6.868-13.008-7.493c2.648-1.281,5.64-0.082,8.327-1.014
		c2.234-1.597,1.237-4.583,1.755-6.872C46.971,406.964,47.238,402.397,52.619,392.912z"/>
	<path fill="#090E1C" enable-background="new    " d="M352.754,417.876c5.003,2.915,10.61,4.441,16.054,6.283
		c4.588,1.384,6.359,6.458,10.294,8.79c1.678,0.638,3.509,1.057,4.686,2.55c-1.509,1.221-3.03,2.436-4.387,3.825
		c0.927,5.551,4.02,4.445-2.806,29.394c-6.651-1.422-7.556-23.803-9.863-29.901c-2.91-1.014-5.983-0.572-8.986-0.768
		c-1.411-0.757-2.708-1.744-3.902-2.801c-0.163-1.183-0.12-2.37-0.087-3.553c0.556-0.24,1.117-0.48,1.678-0.714
		c5.45,3.725,7.614,0.635,8.692-0.965c-1.739-0.454-11.073-9.591-11.923-10.594C352.384,418.906,352.569,418.388,352.754,417.876z"
		/>
	<path fill="#090E1C" enable-background="new    " d="M1934.815,418.334c2.054,1.531,2.36,4.414,4.534,5.814
		c2.131,1.477,0.104,4.501,1.94,6.163c0.033-0.823,0.087-1.64,0.169-2.452c0.179,1.021,4.106,11.676,3.956,12.185
		c-0.948,3.035-0.97,6.229-0.916,9.378c3.932,1.752,7.765,0.25,7.918,2.834c-1.515,1.182-3.4,1.907-4.528,3.526
		c-1.109,3.432,4.153,6.164,5.155,7.019c0.431,0.643,0.082,1.422-0.022,2.114c0.752,1.433,2.125,2.294,3.335,3.302
		c0.452,2.027,0.42,4.125,0.768,6.18c4.463,3.477,10.545,4.725,13.961,9.52c-0.975,2.234-0.153,4.659,0.18,6.942
		c2.905,1.831,6.49,0.578,9.389,2.403c-1.439,1.477-3.172,2.61-4.648,4.027c1.46,1.395,3.035,2.692,4.828,3.673
		c3.99,1.933-3.255,18.257-6.011,20.506c-0.883,0-1.7-0.332-2.501-0.529c-3.984-34.03-11.954-10.8-23.029-18.533
		c-0.011-0.926,0.005-1.847,0.016-2.757c5.917-4.116,14.53,0.32,8.724-12.479c-2.514-5.449-10.803-11.191-11.046-11.776
		c-1.101-1.477,0.381-3.662-1.052-4.948c-15.201-15.62-8.266-11.702-22.56-9.09c-2.267-2.627-3.706-6.746-1.335-9.765
		c1.479-3.151,6.279,2.694,12.021-0.992C1931.761,442.24,1933.547,421.065,1934.815,418.334z"/>
	<path fill="#090E1C" enable-background="new    " d="M1348.093,418.731c2.837,2.961,5.397,11.503,6.207,17.307
		c0.941,7.867-5.77,10.432,4.806,12.457c0.245,0.512,0.512,1.03,0.79,1.553c-0.807,0.856-1.558,1.755-2.283,2.665
		c1.015,0.722,8.862,5.107,8.152,9.749c-0.736,1.264-2.327,0.567-3.439,0.392c-9.002-1.528-3.592-9.286-27.47-6.087
		c-1.139-1.493-2.207-3.041-3.073-4.697c7.471-1.547,13.077-0.777,12.109-5.782c0,0,1.799-19.426,1.744-22.833
		C1346.801,422.061,1347.989,420.661,1348.093,418.731z"/>
	<path fill="#090E1C" enable-background="new    " d="M1720.333,420.219c2.358,4.414,2.42,8.418,6.387,17.176
		c3.525,9.44,0.461,5.236,2.278,16.305c2.496,1.188,6.245,0.365,7.542,3.34c-1.978,0.97-4.043,1.853-5.629,3.417
		c4.693,14.726,1.262-5.922,6.681,27.476c0.452,1.335-1.139,1.94-2.185,1.885c-8.125-5.707-16.534-25.824-17.247-27.1
		c-10.888-0.553-16.148,5.867-16.239-5.024c5.395-3.231,6.523-0.458,14.19-1.913
		C1716.975,453.992,1712.427,424.435,1720.333,420.219z"/>
	<path fill="#090E1C" enable-background="new    " d="M1240.571,424.502c0.234-0.022,0.692-0.071,0.926-0.098
		c5.644,8.162,7.329,29.406,7.836,30.407c2.06,1.94,5.171,0.589,7.471,1.951c0.267,1.095-0.954,1.499-1.602,2.093
		c-1.052,0.638-1.744,1.651-2.387,2.659c2.856,3.239,8.234,7.324,12.185,18.13c-2.643-0.076-4.327-2.36-6.539-3.455
		c-16.708-9.027-11.605-13.383-20.419-11.596c-2.011,0.605-3.689,2.016-5.738,2.479c-2.499-1.347-5.779-4.782-3.7-6.981
		c4.266-2.961,11.568,3.06,10.152-8.365C1237.386,445.75,1239.28,428.577,1240.571,424.502z"/>
	<path fill="#090E1C" enable-background="new    " d="M2284.692,431.903c3.721-1.278,17.575,8.868,18.359,14.441
		c-0.463,2.212-1.101,4.392-1.733,6.561c2.186,0.518,4.785,0.779,5.989,3.003c-1.237,1.199-2.692,2.311-3.237,4.016
		c0.458,2.588,2.752,4.261,4.741,5.749c0,3.823-7.158,22.991-13.536,15.972c0.008-1,4.229-21.921-10.828-17.46
		c-6.925,1.367-6.669-4.628-4.828-6.964C2302.182,456.896,2278.649,437.25,2284.692,431.903z"/>
	<path fill="#090E1C" enable-background="new    " d="M902.623,443.052c0.616-0.332,1.248-0.648,1.886-0.965
		c2.899,7.204,8.436,13.122,10.544,20.675c3.81,13.065,3.49,4.754,10.109,10.136c-8.897,5.964-3.893,3.73-2.37,14.25
		c0.865,5.359,1.917,16.981,1.515,19.847c-7.69-3.549-16.025-27.141-16.473-28.141c-3.27,1.079-6.403,2.529-9.743,3.4
		c-3.023-4.581-2.431-7.226-0.943-8.784c3.313-0.114,7.487,0.883,9.869-2.125C903.488,464.673,902.386,464.427,902.623,443.052z"/>
	<path fill="#090E1C" enable-background="new    " d="M735.246,445.041c3.12-0.07,15.084,4.08,16.299,4.479
		c3.291,1.21,5.024,4.55,7.951,6.31c1.875,0.796,3.973,0.768,5.896,1.455c-4.118,6.967-3.957,0.808-2.855,15.672
		c0.349,2.049-2.387,2.932-2.207,4.915c-0.049,2.212,1.45,4.011,2.229,5.989c2.687,6.149,1.678,14.758,2.768,22.01
		c-0.861-0.687-1.804-1.313-2.381-2.256c-10.23-17.943-8.654-7.479-10.523-16.795c-0.403-2.801-2.207-5.073-3.33-7.596
		c-8.259-1.777-9.879,1.252-12.141-1.417c-1.504-0.91-1.073-2.719-1.128-4.18c22.997-3.001-3.747-4.86,3.275-15.002
		C737.147,455.112,735.319,446.043,735.246,445.041 M736.423,448.779c1.86,5.111,7.41,8.623,10.065,9.378
		C746.004,456.099,742.839,450.343,736.423,448.779z"/>
	<path fill="#090E1C" enable-background="new    " d="M446.958,454.49c-0.049-1.346,1.695-1.433,2.676-1.488
		c3.861,0.917,11.791,5.697,13.231,11.346c0.076,2.621-1.733,4.801-2.796,7.079c1.82,0.943,3.973,1.286,5.531,2.692
		c0.174,3.034-5.439,0.985-0.534,6.403c5.922,4.346,2.547,13.752-1.346,19.699c-1.101-0.403-2.332-0.757-2.992-1.809
		c-3.544-32.978-23.507-9.535-21.323-24.032c15.073,1.98,13.91-9.977,9.961-15.242C448.374,457.684,446.473,456.512,446.958,454.49z
		"/>
	<path fill="#090E1C" enable-background="new    " d="M1070.622,460.871c3.197-0.692,17.143,7.184,20.108,10.31
		c1.689,2.142,1.068,5.384,2.975,7.389c1.798,0.692,3.798,0.283,5.695,0.36c0.218,0.523,0.42,1.057,0.61,1.613
		c-10.753,11.127,5.071,10.202-15.585,32.68c-4.775,2.252,4.698-16.134-1.602-26.201c-5.368,0.093-13.271,5.41-11.324-4.763
		c2.894-0.125,5.76-0.648,8.665-0.638c0.556-0.861,1.259-1.657,1.618-2.627C1077.934,466.052,1078.099,470.903,1070.622,460.871z"/>
	<path fill="#090E1C" enable-background="new    " d="M2562.85,470.446c2.787,1.016,12.19,13.874,14.109,28.985
		c1.193,2.654,4.245,3.335,6.299,5.095c0.976,1.515,0.507,3.46,0.91,5.161c0,0,4.987,5.818,10.555,18.8
		c-0.959,0.501-1.891,1.014-2.812,1.515c-19.539-10.696-15.185-20.226-28.789-18.784c-5.273,0.316-11.961-4.844-9.28-11.95
		c3.248-1.057,6.354,0.894,9.645,0.643C2562.203,494.624,2558.452,475.937,2562.85,470.446z"/>
	<path fill="#090E1C" enable-background="new    " d="M1429.599,473.699c1.345,1.909,7.157,19.322,7.019,25.383
		c0.276,8.682,2.62,6.606,8.18,8.31c-0.066,2.452-4.027,2.338-4.387,4.855c0.457,1.397,13.294,19.406,10.915,21.051
		c-6.981-2.485-12.163-8.027-16.926-13.449c-8.577-9.95-4.85-5.628-16.31-2.725c-2.441-1.542-3.346-4.768-2.85-7.536
		c21.665-5.951,6.545,7.662,12.452-31.176C1427.942,476.713,1428.493,475.045,1429.599,473.699z"/>
	<path fill="#090E1C" enable-background="new    " d="M1577.004,486.375c1.001,0.27,15.11,4.4,18.157,8.479
		c2.234,1.64,5.34,0.469,7.765,1.613c-0.997,2.272-3.945,3.079-4.73,5.542c0.271,14.825-5.319,26.421-6.294,27.487
		c-3.326-12.575,0.183-19.356-3.482-25.814c-4.362,0.782-7.362,2.578-7.362,2.578c-2.267-2.125-3.161-5.27-3.466-8.272
		c1.766-0.91,3.651-0.18,5.509-0.054c1.204-0.338,1.771-1.553,2.305-2.583C1583.594,494.279,1578.943,490.124,1577.004,486.375z"/>
	<path fill="#090E1C" enable-background="new    " d="M1917.41,494.543c6.43-2.885,10.415,2.561,17.759,3.929
		c0.354,1.569,1.591,2.534,3.024,3.15c0.959,2.567,0.441,5.477,1.728,7.907c-0.463,0.654-0.921,1.308-1.232,2.038
		c2.362,3.553,8.27,0.082,9.335,4.834c-1.346,0.43-2.855,0.534-3.94,1.493c-2.119,5.026,16.542,4.635,1.341,23.378
		c-1.046-0.202-2.082-0.376-3.03-0.796c-1.531-2.61-0.349-5.945-1.804-8.588c-0.878-1.633-6.018-8.668-9.057-8.359
		c-3.477-0.714-5.509,2.779-8.283,4.131c-4.147-1.297-6.697-5.918-6.12-10.125c2.926-0.665,5.945,0.501,8.85-0.392
		c5.896-1.019,1.16-13.467-5.624-18.958C1919.094,497.213,1918.233,495.862,1917.41,494.543z"/>
	<path fill="#090E1C" enable-background="new    " d="M2503.103,497.617C2504.896,497.698,2502.225,499.224,2503.103,497.617z"/>
	<path fill="#090E1C" enable-background="new    " d="M2504.007,498.608c4.447-0.662,17.209,13.329,17.906,14.343
		c2.065,2.507,1.684,5.962,2.545,8.942c3.144,0.525,5.568-1.087,6.757,3.526c3.302,4.396,7.77,5.36,9.978,12.174
		c6.408,0.309,4.869-3.165,5.019-5.204c0.116-15.704,1.61-10.719-2.927-25.067c0.414-0.376,0.817-0.747,1.302-1.106
		c6.912,4.674,3.62,2.774,13.149,13.994c4.962,5.568,2.351,10.703,2.043,14.735c2.479,0.79,5.395,0.915,7.34,2.883
		c0.076,0.85-0.054,1.717-0.19,2.561c-6.43,4.482-3.408,3.901-1.232,8.376c3.162,5.171-4.247,22.396-5.117,23.623
		c-1.22,0.747-2.659,1.548-4.098,1.133c-3.984-2.707-2.869-25.06-9.591-26.141c-4.136-2.054-9.526,0.049-13.117-3.226
		c-1.008-1.749-0.583-3.869-0.545-5.782c-14.915-11.623-32.721-1.171-31.688-12.109c3.558-0.643,7.406-0.398,10.55-2.556
		c-3.379-9.72-1.04-7.479-4.436-16.784C2506.639,504.052,2504.683,501.611,2504.007,498.608z"/>
	<path fill="#090E1C" enable-background="new    " d="M631.724,506.069c7.466,6.949,3.361,25.189,3.291,26.19
		c0.823,2.643,4.087,2.24,6.131,3.33c-0.229,0.883-0.507,1.755-0.725,2.648c3.46,2.681,8.076,3.493,11.095,6.839
		c-4.778,1.695-15.036-3.563-25.225-2.828c-2.229,0.251-4.289,1.292-6.512,1.564c-2.73-0.534-3.88-3.291-5.226-5.378
		c2.757-1.913,6.174-1.618,9.335-1.896C627.551,534.259,628.518,508.137,631.724,506.069z"/>
	<path fill="#090E1C" enable-background="new    " d="M497.462,514.58c0.888,6.082,2.992,11.918,3.793,18.016
		c0.888,4.594-1.221,9.182-0.213,13.792c1.635,0.632,3.738,0.523,5.019,1.815c0.054,2.125-2.469,3.226-3.439,4.986
		c2.628,8.713,3.388,3.737,6.893,16.964c0.338,3.368,0.883,6.73,1.826,9.994c-2.224-2.329-11.286-8.954-19.939-25.514
		c-1.001,0.077-11.838,0.869-14.463,0.142c-0.098-1.864-0.082-3.771,1.03-5.351c3.504,0.768,7.166-0.022,10.463-1.248
		c2.616-1.831,0.698-5.073,1.057-7.596C490.484,534.124,493.914,517.584,497.462,514.58z"/>
	<path fill="#090E1C" enable-background="new    " d="M765.43,518.733c5.375-0.159,18.864,0.702,22.005,5.689
		c0.589,2.147,0.48,4.403,0.867,6.583c1.193,2.218,3.902,2.229,5.825,3.455c-0.61,1.204-1.782,2.343-1.591,3.787
		c2.291,4.729,7.435,4.217-1.063,15.416c-1.995,2.665-4.648,4.806-7.705,6.141c-2.201-3.95,5.214-9.971,1.09-15.994
		c-4.543-6.366-7.807-1.66-13.509-1.597c-1.782-0.643-2.926-2.507-3.215-4.343c4.039-2.282,12.925-0.779,8.888-10.752
		c-3.455-3.439-8.882-3.52-12.643-6.468C764.727,520.008,765.075,519.365,765.43,518.733z"/>
	<path fill="#090E1C" enable-background="new    " d="M1146.439,528.117c19.741,36.253,8.977,27.198,20.637,30.675
		c0.065,0.267,0.196,0.801,0.262,1.073c-0.97,0.867-2.703,1.515-2.648,3.024c1.799,4.696,6.751,5.851,12.381,17.111
		c-8.633,0.095-19.203-14.287-26.571-14.375c-6.075-0.178-4.78,4.933-12.021-1.907c5.272-4.293,8.492,2.119,12.713-6.109
		c-2.191-2.441-2.937-5.651-4.387-8.501C1146.3,544.357,1144.384,532.428,1146.439,528.117z"/>
	<path fill="#090E1C" enable-background="new    " d="M2065.742,538.487c0.515,1,2.421,5.84,3.487,10.457
		c5.98,10.984,4.318,12.061,3.836,14.958c0.496,0.403,1.03,0.812,1.586,1.232c-0.354,0.861-0.698,1.722-1.019,2.594
		c2.904,2.114,9.022,0.296,8.79,3.744c-1.667,0.883-3.727,1.526-4.496,3.444c1.293,3.571,10.112,6.919,10.261,10.921
		c-0.005,1.324,1.215,1.76,2.332,1.978c0.452,1.493,0.747,3.035,0.648,4.616c-19.13-2.452-20.081-15.575-31.661-11.585
		c-0.038,1.014-0.027,2.044-0.033,3.068c-1.488,1.341-3.068,2.599-4.37,4.114c0.716,4.659,5.005,4.795,4.463,8.588
		c-0.54,1.58-0.065,3.515-1.324,4.806c-4.038,4.098-6.975,9.602-12.414,12.049c-1.232-0.311-1.624-1.635-2.267-2.539
		c4.151-10.175,4.146-20.557-6.91-17.449c-5.196,1.222-5.541,4.455-9.013-0.447c-1.831-2.719-0.109-6.152,1.853-8.288
		c9.269,1.935,8.851,0.591,10.604-0.599c-1.374-6.248,1.08-10.829-12.076-22.168c0.349-0.654,0.687-1.308,1.073-1.951
		c4.889,0.349,15.089,6.586,19.291,7.88c0.447,1.564,1.444,2.801,3.139,3.095c0.234,1.079-0.196,2.578,1.003,3.21
		c2.588,0.24,5.291,0.229,7.782-0.676C2063.595,571.22,2056.31,534.648,2065.742,538.487z"/>
	<path fill="#090E1C" enable-background="new    " d="M679.733,541.816C681.531,541.947,678.866,543.429,679.733,541.816z"/>
	<path fill="#090E1C" enable-background="new    " d="M2395.919,544.666c1.803,3.276,10.373,13.112,11.776,20.915
		c2.449,7.463-0.087,5.719,7.64,7.133c0.441,1.64,0.234,3.313-0.899,4.632c1.45,2.572,4.054,3.967,6.343,5.678
		c3.335,3.455,5.804,7.618,8.61,11.504c-0.153,0.736-0.294,1.471-0.381,2.223c-8.079-1.765-19.369-10.059-20.37-10.817
		c-8.417-5.857-10.616-0.551-15.624-0.441c-2.098-1.041-3.787-2.926-4.474-5.161c1.634-4.516,4.581-1.521,10.37-5.553
		C2395.77,567.811,2391.555,545.959,2395.919,544.666z"/>
	<path fill="#090E1C" enable-background="new    " d="M681.182,545.222c10.832,6.514,17.375,20.428,18.528,21.46
		c1.902,0.594,3.934,0.469,5.907,0.632c-0.087,2.725-2.992,3.825-3.994,6.087c-0.294,1.989-0.12,4.022,0.278,5.989
		c1.095,7.94-1.406,15.678-2.921,23.383c-4.888-5.362-6.54-22.758-9.515-27.841c-2.806,0.529-5.624,1.03-8.294,2.071
		c-1.604,0.681-6.908-1.896-3.335-6.136c1.9-1.499,11.641-0.831,9.482-5.057C685.734,563.195,681.196,551.622,681.182,545.222z"/>
	<path fill="#090E1C" enable-background="new    " d="M1584.737,548.437c19.066,13.198,13.313,11.924,16.74,16.871
		c1.477,1.079,3.444,0.943,5.139,1.531c1.117,1.507-2.905,2.99-2.621,5.27c0.589,3.809,1.864,7.542,2.065,11.405
		c-1.553,5.215-1.64,10.686-2.806,15.972c-1.017,0.179-0.785,1.563-8.844-24.648c-4.163-0.883-7.03,3.608-11.1,2.866
		c-0.403-1.101-1.003-2.147-1.106-3.313c0.234-0.774,0.621-1.488,0.975-2.212c2.621-0.349,5.308-0.894,7.618-2.245
		C1593.124,565.419,1585.958,558.742,1584.737,548.437z"/>
	<path fill="#090E1C" enable-background="new    " d="M1651.028,551.538c5.415-0.704,16.406,2.573,19.509,3.815
		c7.924,2.901,1.728,7.771,5.444,10.67c1.88,1.973,4.948,1.079,7.286,2.169c-1.019,1.193-2.201,2.234-3.139,3.488
		c2.725,5.139,5.424,2.887,3.063,9.929c-2.586,4.709-5.696,9.299-10.855,10.872c0.97-2.905,2.599-5.706,2.419-8.872
		c0.387-4.343-2.779-9.438-7.477-9.449c-4.047-1.441-10.832,4.144-11.869-2.496c2.659-0.866,5.411-1.39,8.141-1.995
		c3.762-3.076,1.913-12.185-9.765-16.315C1652.691,553.02,1651.791,552.334,1651.028,551.538z"/>
	<path fill="#090E1C" enable-background="new    " d="M1072.801,559.478c2.194-0.712,18.257,7.092,22.092,11.618
		c3.952,8.54-3.256,5.564,7.967,9.215c-1.341,2.703-5.15,4.201-4.654,7.635c-0.07,3.175,5.125,9.552-14.801,24.168
		c-0.169-3.477,2.801-5.972,3.531-9.248c4.34-22.768,0.474-15.19-10.534-12.85c-0.768-1.913-1.335-3.902-2.256-5.744
		c6.375-2.037,23.019-0.966,3.34-20.326C1076.016,562.306,1073.515,561.783,1072.801,559.478z"/>
	<path fill="#090E1C" enable-background="new    " d="M2196.456,560.35c0.73-0.507,1.597-0.774,2.452-1.09
		c0.986,1.597,3.046,2.763,2.959,4.85c0.06,1.188,0.409,2.338,0.779,3.477c0.534-0.218,1.095-0.431,1.684-0.632
		c-0.828,3.842,1.166,7.526,3.891,10.109c0.654,2.719-0.283,6.06,2.065,8.19c-0.443,5.287,4.734,3.453,8.283,3.994
		c0.093,1.172,0.12,2.354,0.125,3.542c-1.64,0.169-3.112,0.856-4.087,2.207c0.638,0.692,1.319,1.39,2,2.093
		c0.174-0.251,0.534-0.747,0.714-0.997c2.405,6.62,6.505,4.534,7.422,11.847c2.48,1.024,2.529,3.929,3.237,6.152
		c-10.891,0.678-21.907-14.779-26.282-14.92c-3.826-0.626-9.589,7.09-12.697,0.332c-0.741-1.286-1.427-3.128-0.267-4.387
		c4.199-1.873,4.887,1.6,10.92-3.793C2196.583,586.396,2192.283,569.852,2196.456,560.35z"/>
	<path fill="#090E1C" enable-background="new    " d="M1415.523,573.019c4.36,2.712-1.988,5.817,8.828,8.981
		c-0.256,1.515-1.406,2.561-2.452,3.569c0.943,1.962,2.583,3.449,3.673,5.319c1.319,4.459-7.89,16.272-11.929,18.56
		c-0.395-3.185,2.943-10.122,2.163-16.49c-2.833-8.316-7.976-3.75-11.727-3.913c-1.281-0.823-1.351-2.332-1.351-3.684
		c1.782-0.196,3.564-0.458,5.351-0.752c0.431-1.052,1.084-2.049,1.253-3.188c-1.696-8.222-10.597-4.471-14.512-8.092
		C1399.951,571.573,1412.237,571.403,1415.523,573.019z"/>
	<path fill="#090E1C" enable-background="new    " d="M1365.498,573.167c5.974,0.065,16.899,6.944,18.681,10.604
		c1.117,2.67,0.436,5.613,0.692,8.419c2.093,0.785,4.294,1.242,6.539,1.286c-0.005,0.349-0.022,1.046-0.027,1.395
		c-1.166,1.112-2.3,2.251-3.406,3.406c3.26,5.243,6.65,6.631,3.101,13.324c-1.896,3.635-3.373,7.803-6.784,10.332
		c-0.267-0.218-0.796-0.648-1.063-0.861c-0.384-3.123,2.81-12.964-4.223-18.561c-2.606-2.893-9.143,1.349-12.61,1.395
		c-0.921-1.411-1.673-2.915-2.223-4.496c7.726-4.582,11.634,4.023,10.283-12.463
		C1373.667,581.112,1367.127,578.583,1365.498,573.167z"/>
	<path fill="#090E1C" enable-background="new    " d="M864.984,575.434c5.079,1.346,10.457,1.253,15.411,3.117
		c5.341,2.608,1.6,5.392,12.948,6.147c-0.011,0.354-0.033,1.057-0.044,1.406c-1.362,0.768-3.112,1.411-3.569,3.084
		c0.375,5.97,4.513,2.737,1.531,17.939c-0.986,3.782-1.428,7.722-3.008,11.335c-0.218,0.005-0.648,0.016-0.866,0.016
		c-2.595-6.471-6.934-24.771-9.526-27.132c-2.948-0.578-5.618,0.992-8.452,1.357c-1.613-0.594-2.659-2.196-4.033-3.188
		c2.128-3.222,10.242-0.846,9.406-5.237c-0.534-0.652-9.513-7.586-10.19-8.087C864.69,576,864.886,575.619,864.984,575.434z"/>
	<path fill="#090E1C" enable-background="new    " d="M1747.804,585.15c4.072-3.843,8.01,0.646,13.078,4.409
		c11.805,9.642,3.601,10.928,7.03,16.953c3.761,3.132,12.255,1.35,3.673,5.787c3.346,3.001,7.94,3.577,4.997,13.171
		c-1.221,2.697-2.245,5.586-4.365,7.733c-0.392,0.005-1.172,0.022-1.564,0.027c-6.596-10.681,1.696-20.514-22.686-17.492
		c-2.831-2.929-2.42-3.335-2.403-7.477c5.218-1.497,8.936,3.614,11.901-0.937C1758.729,599.761,1749.47,587.852,1747.804,585.15z"/>
	<path fill="#090E1C" enable-background="new    " d="M1311.756,590.665c3.83,1.534,11.318,8.21,12.741,10.779
		c3.877,7.053,0.672,3.758,1.613,11.918c1.755,2.076,4.855,1.608,7.291,1.935c-0.534,1.782-2.409,2.534-3.449,3.967
		c-1.047,1.69,4.033,4.025,5.155,7.024c1.166,6.601-2.307,12.632-4.359,13.433c-0.894,0.071-1.744-0.223-2.583-0.381
		c0.425-6.272-2.763-12.681-7.831-16.332c-4.485-0.676-8.943,0.202-13.324,1.084c-0.638-0.992-1.215-2.016-1.717-3.057
		c2.485-1.973,5.793-1.744,8.692-2.621c5.825-1.539,1.543-15.044,0.36-17.176C1312.652,596.694,1306.564,588.848,1311.756,590.665z"
		/>
	<path fill="#090E1C" enable-background="new    " d="M2376.459,598.31c11.669,7.611,19.972,21.144,19.972,21.144
		c3.409,1.125,3.246-1.388,7.433,1.782c-1.488,2.202-3.324,4.207-4.403,6.654c-0.005,3.439,1.439,6.697,1.52,10.13
		c-0.112,1.012-2.011,19.086-2.97,20.855c-10.632-6.081-5.647-16.517-13.318-25.803c-2.387,0.005-4.24,1.46-6.087,2.73
		c-1.64,0.458-3.575-0.414-4.518-1.776c-6.207-11.986,6.475-7.364,9.46-10.697C2380.707,621.178,2372.107,604.298,2376.459,598.31z"
		/>
	<path fill="#090E1C" enable-background="new    " d="M945.902,603.383c8.372,14.503,3.259,22.816,3.221,26.822
		c1.624,2.011,4.376,1.117,6.605,1.39c-0.436,2.12-2.387,3.33-3.727,4.855c4.887,6.203,6.936,3.47,6.681,13.852
		c-1.984,0.076-3.477-1.232-4.632-2.67c-15.968-19.433-27.529,0.781-27.04-14.593c6.064-0.251,11.864,4.089,12.615-5.842
		c0.142-5.308,2.518-10.158,3.073-15.4C943.011,608.368,943.193,601.09,945.902,603.383z"/>
	<path fill="#090E1C" enable-background="new    " d="M1047.838,604.844c2.435-1.924,14.6,1.976,17.1,8.288
		c0.337,4.476-3.236,8.355,0.845,11.068c1.777,0.474,3.667,0.109,5.498,0.381c-0.997,2.125-4.359,2.256-4.708,4.725
		c1.199,2.016,3.406,3.231,4.599,5.226c0.754,4.35-6.306,11.18-11.264,11.329c2.468-13.13-0.351-18.485-15.155-12.604
		c-2.605-1.907-3.913-6.343-0.997-8.588c3.81-0.292,10.579,4.895,11.384-4.561C1055.28,607.924,1050.468,608.148,1047.838,604.844z"
		/>
	<path fill="#090E1C" enable-background="new    " d="M2113.68,606.473c1.895-0.103,19.135,7.779,20.135,8.125
		c3.201,5.435,11.04,5.454,12.507,5.804c-3.265,5.331-4.936,3.157-0.981,11.427c0.191-0.294,0.572-0.883,0.763-1.177
		c0.595,2.281,2.316,14.422,0.147,16.457c0.311,2.387,0.698,4.795,0.61,7.22c-6.222,3.142-9.852-18.427-17.514-24.593
		c-1.807,1.293-6.7,6.55-11.188-0.812c-0.899-1.139-0.469-2.616-0.392-3.913c3.084-0.381,6.425-0.529,8.839-2.79
		C2124.015,620.547,2115.627,612.651,2113.68,606.473z"/>
	<path fill="#090E1C" enable-background="new    " d="M2538.883,615.323c7.197,1.948,19.047,12.465,19.427,21.067
		c-0.076,1.673,0.534,3.264,0.986,4.855c8.018,0.855,5.801,2.209,5.787,6.327c1.243,1.368,11.875,4.817,13.76,17.035
		c-11.042-0.316-19.074-13.885-32.32-11.155c0.278,0.245,0.833,0.736,1.112,0.981c-2.534,0.545-5.351,1.488-7.782,0.169
		c-1.221-1.161-2.49-2.425-3.052-4.022c-0.022-1.406,0.545-2.714,1.079-3.984c3.286,0.218,6.899-0.147,9.313-2.665
		C2545.839,634.355,2539.437,622.13,2538.883,615.323z"/>
	<path fill="#090E1C" enable-background="new    " d="M2498.918,618.505c4.143,0.615,9.691,19.952,9.874,21.797
		c-0.614,10.687,2.597,8.95,5.335,9.411c1.896-0.185,3.39,1.068,4.518,2.474c-1.477,1.302-2.997,2.534-4.539,3.738
		c3.481,5.523,6.49,5.126,12,17.629c-0.234,0.698-0.545,1.362-0.774,2.049c-6.043-1.052-11.83-3.853-16.157-8.223
		c-15.201-13.476-10.198-1.163-17.443-3.139c-3.542-1.471-6.943-4.97-6.054-9.106c1.074-1.629,3.177-1.221,4.861-1.319
		c14.528-1.245,0.237-3.031,5.891-25.432C2496.972,625.023,2497.697,621.693,2498.918,618.505z"/>
	<path fill="#090E1C" enable-background="new    " d="M1536.243,633.606c0.985,1.002,11.009,13.136,13.198,17.563
		c5.9,10.664,6.872,4.775,10.594,7.863c-1.128,1.057-2.354,2.022-3.313,3.237c0.861,4.065,4.109,7.013,5.716,10.763
		c1.635,3.896,2.839,7.956,4.327,11.918c-0.659,0.005-1.302,0.016-1.924,0.044c-18.026-16.736-11.289-11.714-18.168-19.422
		c-4.999,0.386-10.582,6.869-12.986-0.752c2.687-1.172,5.782-1.499,8.212-3.215C1543.654,658.994,1533.807,640.571,1536.243,633.606
		z"/>
	<path fill="#090E1C" enable-background="new    " d="M1239.656,637.333c0.554,0.091,18.58,11.359,19.754,12.855
		c1.335,1.902,1.591,4.774,3.989,5.766c2.441,1.499,5.76-0.452,7.864,1.804c-2.087,1.793-4.741,3.302-5.733,6.011
		c0.303,3.545,5.376,8.752-0.599,31.029c-0.681-0.027-1.351-0.049-2.005-0.06c-0.064-0.23-9.308-28.031-10.065-29.492
		c-12.785,1.921-11.015,5.206-14.915,0.027c5.851-6.574,8.789-0.361,12.904-7.531
		C1250.461,657.042,1240.458,638.43,1239.656,637.333z"/>
	<path fill="#090E1C" enable-background="new    " d="M1658.325,638.565c0.832,1,9.34,16.239,9.34,27.879
		c2.114,1.253,4.583,1.161,6.959,1.046c0.403,0.512,0.834,1.035,1.281,1.564c-2.496,0.986-4.665,2.828-6.06,5.101
		c0.18,3.673,2.202,6.921,3.084,10.441c0.736,6.376,1.106,12.839,2.599,19.106c-0.752,0.093-1.482,0.452-2.202,0.267
		c-6.426-5.411-12.207-20.93-15.209-26.898c-1.014-2.553-6.914,1.242-11.694,2.098c-5.586-12.003,6.707-4.148,10.239-10.212
		C1656.908,667.377,1653.914,648.252,1658.325,638.565z"/>
	<path fill="#090E1C" enable-background="new    " d="M2134.491,654.362c4.449-0.032,8.19,8.821,13.253,13.155
		c1.001,0.891,5.664,5.42,5.449,7.591c-0.828,10.253,7.608,5.947,10.098,9.002c-0.752,0.888-1.477,1.782-2.202,2.676
		c3.003,2.278,5.586,5.411,9.313,6.534c0.022,2.218,1.144,4.79,3.466,5.384c0.469,1.646,1.335,3.139,2.294,4.567
		c0.665-0.104,1.357-0.202,2.082-0.283c-0.67,1.123-1.346,2.24-2.044,3.34c-3.515-2.719-7.836-3.983-11.776-5.902
		c-4.609-2.729-14.442-11.362-19.275-8.245c-1,0.489-7.101,5.118-10.261-1.657c6.079-3.267,6.677-1.139,9.433-6.572
		C2137.63,672.391,2134.31,657.996,2134.491,654.362z"/>
	<path fill="#090E1C" enable-background="new    " d="M531.831,663.795c1,0.075,19.37,2.835,24.653,5.929
		c1.439,2.082,1.302,4.926,2.981,6.904c2.038,1.084,4.419,1.079,6.61,1.711c-0.932,1.907-3.302,3.177-3.177,5.498
		c0.567,2.343,2.43,4.43,1.798,6.992c-1.216,4.865-8.797,14.332-14.108,16.773c-2.575-4.93,9.862-22.583-1.646-22.729
		c-4.42,0.997-7.145,5.159-12.697-0.91c0.283-0.959,0.561-1.913,0.845-2.855c3.657-0.231,10.839,1,11.509-3.291
		C544.446,662.767,533.881,671.193,531.831,663.795z"/>
	<path fill="#090E1C" enable-background="new    " d="M899.239,670.449c5.059,10.411,3.551,23.061,4.076,27.388
		c1.346,2.883,4.943,2.245,7.504,2.943c0.328,1.705-3.249,1.877-4.518,4.436c0.627,2.915,2.681,5.193,4.676,7.302
		c3.182,3.286,4.436,7.842,5.733,12.109c-6.582-2.793-17.636-12.989-19.035-15.193c-1.819-2.226-0.732-3.853-13.531-1.945
		c-1.798-1.014-3.297-2.796-2.915-4.981c0.518-0.403,1.057-0.796,1.602-1.182c0.065,0.289,0.196,0.872,0.262,1.161
		c3.182-0.262,6.436,0.202,9.547-0.763C894.109,697.814,893.657,678.949,899.239,670.449z"/>
	<path fill="#090E1C" enable-background="new    " d="M2117.238,672.863c22.775,24.317,8.347,26.647,21.749,28.451
		c1.604,0.054,4.304,1.972-1.134,4.229c1.76,6.034,9.507,6.966,10.823,17.264c0.136,1.466,1.351,3.259-0.011,4.496
		c-5.405,1.961-17.509-19.917-28.489-15.362c-1.787,0.567-3.531,1.733-5.46,1.313c-1.428-0.954-2.207-2.485-2.866-4
		c4.152-3.855,7.581-1.292,11.095-5.755C2119.972,698.539,2114.999,677.082,2117.238,672.863z"/>
	<path fill="#090E1C" enable-background="new    " d="M766.89,679.38c16.855,4.771,10.41,19.39,9.978,21.372
		c1.722,1.88,4.414,1.749,6.697,2.474c-0.719,1.128-2.572,2.256-1.826,3.782c2.31,1.847,5.842,2.861,6.338,6.24
		c-0.269,1.279-0.653,6.465-6.866,6c-1.113-1.001-3.292-8.228-8.136-8.882c-10.641-1.552-14.961,3.876-17.574-1.063
		c-0.278-1.242-0.202-2.528-0.196-3.776C777.56,709.933,764.336,685.258,766.89,679.38z"/>
	<path fill="#090E1C" enable-background="new    " d="M1388.903,684.96c3.229,0.318,16.096,1.758,19.198,4.518
		c4.195,7.454,0.123,4.003,9.438,6.986c0.681,1.499-1.302,2.321-2.016,3.406c-2.689,2.042,2.63,6.109,1.994,10.114
		c-0.603,4.497-3.515,15.88-6.109,19.749c-2.812-4.069-1.163-17.206-8.18-26.277c-5.777-0.488-11.021,6.251-12.959-1.286
		c5.101-1.654,10.077-2.316,9.782-5.635C1397.108,688.53,1390.691,689.195,1388.903,684.96z"/>
	<path fill="#090E1C" enable-background="new    " d="M2254.508,697.123c1.676,0.691,8.406,11.031,8.73,11.961
		c0.665,0.196,1.341,0.387,2.065,0.605c-0.737,4.306,5.108,5.599,4.708,11.814c0.927,2.165,2.439,2.098,9.417,2.834
		c-0.093,2.452-2.452,3.193-4.223,4.256c1.254,2.338,3.902,3.678,4.67,6.343c0.169,1.204,1.28,1.624,2.359,1.798
		c0.67,1.259,1.341,2.534,2.076,3.787c-0.855,2.223,1.635,3.635,3.122,4.785c0.202,2.365,1.281,4.518,2.681,6.408
		c-8.993,1.545-24.625-20.374-28.745-18.593c-2.153,0.943-4.158,2.158-6.25,3.188c-4.32-2.669-4.987-2.395-4.174-6.91
		c3.368-0.556,7.215-0.948,9.629-3.673C2254.661,717.876,2252.867,702.143,2254.508,697.123z"/>
	<path fill="#090E1C" enable-background="new    " d="M1676.613,704.698c3.58-1.435,17.818-1.558,24.212,4.3
		c0.822,0.608,0.516,1.159,1.368,7.869c1.793,2.986,5.962,1.21,8.31,3.537c-1.7,1.27-4.61,1.804-4.981,4.207
		c0.926,1.885,2.572,3.313,3.526,5.193c1.268,5.607-9.619,14.394-15.82,15.258c-0.926-2.43,1.602-3.907,2.512-5.847
		c1.013-2.589,1.259-5.498,0.572-8.196c-6.111-9.542-12.513,5.228-15.798-5.139c3.325-1.017,20.066-2.892,5.188-16.463
		C1683.049,707.15,1679.561,706.426,1676.613,704.698z"/>
	<path fill="#090E1C" enable-background="new    " d="M1616.746,703.973c15.064,13.622,7.093,13.443,8.55,21.133
		c1.014,1.896,3.548,1.646,5.379,2.033c-0.076,0.932-0.153,1.875-0.24,2.817c1.613,1.204,3.199,2.469,4.643,3.896
		c-1.806,4.25-0.323,5.441-5.967,6.267c-1.975-2.468-3.798-10.161-20.037-6.981c-1.956,0.561-2.703-1.717-3.624-2.926
		C1628.515,728.867,1609.852,708.792,1616.746,703.973z"/>
	<path fill="#090E1C" enable-background="new    " d="M1921.552,719.112c0.798,1.075,5.509,4.866,11.504,14.888
		c2.459,4.529,0.945,9.38,3.204,10.926c2.005,1.896,4.904,0.419,7.33,1.024c-2.485,2.44-7.781,4.937-2.698,10.73
		c5.085,4.973,3.365,23.593,2.948,24.964c-4.244-3.18-15.167-25.591-16.915-26.964c-3.58,0.649-6.294,3.477-9.705,4.648
		c-1.776-1.793-2.817-4.158-2.839-6.686c2.714-1.199,5.749-1.139,8.545-2.038C1926.879,747.774,1924.885,751.883,1921.552,719.112z"
		/>
	<path fill="#090E1C" enable-background="new    " d="M1748.409,724.18c33.506,8.588,14.026,9.178,30.822,10.441
		c0.294,0.223,0.894,0.67,1.193,0.894c-1.88,1.259-3.766,2.507-5.368,4.103c5.736,11.831,3.619,1.113,2.594,28.31
		c-4.687,0.059-4.717-11.87-11.967-25.209c-9.222,0.402-6.411,1.594-11.286,1.755c-0.632-0.943-1.215-1.891-1.766-2.85
		c4.618-2.578,8.562-2.089,8.321-6.419C1756.318,728.727,1752.103,729.559,1748.409,724.18z"/>
	<path fill="#090E1C" enable-background="new    " d="M433.394,725.269c6.895,7.433,5.992,26.11,5.983,27.198
		c1.864,1.515,4.332,1.569,6.539,2.234c-1.052,1.341-2.327,2.496-3.297,3.902c0.424,3.444,4.646,3.66,7.542,10.485
		c-3.774,0.057-14.417-4.439-17.002-7.624c-3.077-3.885-9.547-0.846-14.463-0.256c-1.602-2.392-1.853-6.25,0.665-8.12
		c0,0,4.721,1.707,8.539,1.624C429.574,750.568,428.951,730.608,433.394,725.269z"/>
	<path fill="#090E1C" enable-background="new    " d="M1511.759,732.305c19.907,0.822,13.821,8.732,26.13,7.199
		c0.213,0.474,0.441,0.954,0.692,1.444c-8.602,6.89,1.48-0.514-0.169,31.601c-1.813-1.693-7.7-14.206-12.327-22.904
		c-4.425-7.62-11.936,3.519-13.378-5.133c1.001-0.243,8.839-0.997,7.15-4.79C1517.078,737.334,1514.287,734.948,1511.759,732.305z"
		/>
	<path fill="#090E1C" enable-background="new    " d="M685.782,733.988c1.006-0.174,17.367,4.125,20.827,6.343
		c3.134,5.142-1.725,4.103,9.373,7.493c-5.747,5.936,0.482,5.128-0.273,9.585c-0.576,5.174-5.882,21.229-10.812,16.659
		c-0.465-1.84,2.824-16.693-4.185-21.825c-5.542-0.329-14.444,5.818-12.915-2.943c13.738,2.016,12.783-5.992,2.125-12.953
		C688.594,735.449,686.539,735.612,685.782,733.988z"/>
	<path fill="#090E1C" enable-background="new    " d="M1748.654,755.11c0.583-0.202,1.199-0.36,1.842-0.474
		c0.743,1.001,10.138,16.879,9.836,27.732c1.907,2.125,4.915,2.861,7.629,1.951c0.185,0.458,0.392,0.921,0.621,1.401
		c-1.264,1.193-2.441,2.485-3.395,3.934c0.031,0.165,12.164,14.751,14.375,25.748c-5.431-0.538-25.921-21.79-27.372-21.443
		c-3.226,0.572-5.896,2.594-8.872,3.798c-2.447,0.158-4.136-2.665-4.512-4.828c4.324-3.104,7.563,0.757,12.228-5.945
		C1746.086,776.891,1749.533,762.443,1748.654,755.11z"/>
	<path fill="#090E1C" enable-background="new    " d="M1018.656,756.064c0.632,0.294,1.308,0.567,1.94,0.954
		c2.262,6.43,6.049,12.239,8.021,18.795c3.052,12.7-2.19,9.043,9.378,12.637c-1.144,1.351-2.67,2.419-3.553,3.967
		c0.529,4.502,8.643,10.835,8.893,20.272c-8.505-6.689-20.342-18.157-20.342-18.157c-8.324-2.868-14.015,4.426-15.073-3.379
		c2.425-0.681,4.954-0.856,7.466-0.828c10.625-0.505-0.187-11.501,2.583-25.934C1018.427,761.622,1017.616,758.739,1018.656,756.064
		z"/>
	<path fill="#090E1C" enable-background="new    " d="M621.555,759.257c0.49,0.485,1.27,0.877,1.226,1.689
		c0.767,6.421,8.75,14.055,10.91,19.64c5.313,11.884,4.473,7.49,10.959,9.689c-1.199,1.602-3.172,2.501-4.12,4.305
		c0.294,4.005,2.801,7.308,4.092,11.008c1.548,4.103,2.152,8.468,3.014,12.752c-0.3,0.142-0.888,0.42-1.183,0.556
		c-1.635-1.853-4.844-1.379-5.831-3.88c-0.926-1.989-3.003-3.313-3.368-5.558c-4.109-3.117-6.463-8.261-7.264-13.264
		c-9.084-2.618-16.006,6.183-16.261-7.329c19.093,5.201,9.902-6.142,9.286-7.504c-2.191-4.425-2.027-9.482-3.237-14.19
		C619.872,764.478,620.057,761.589,621.555,759.257z"/>
	<path fill="#090E1C" enable-background="new    " d="M1066.317,768.521c5.612-0.452,15.476,3.704,18.392,5.084
		c7.556,5.259,2.273,5.398,5.547,11.389c1.689,1.526,4.076,1.613,6.136,2.381c-0.997,1.362-2.409,2.321-3.531,3.564
		c-0.534,3.281,2.845,5.7,2.67,8.97c-0.224,4.864-7.545,16.125-10.986,18.844c-1.885-3.745,4.631-13.01-3.024-25.1
		c-3.787-1.193-7.117,1.608-10.572,2.676c-1.057-1.564-3.264-2.806-2.725-4.97c2.784-4.253,12.494,2.812,9.64-11.46
		C1076.344,773.143,1068.474,772.637,1066.317,768.521z"/>
	<path fill="#090E1C" enable-background="new    " d="M1354.376,767.829c1.156,2.238,4,14.83,4.398,18.435
		c0.59,5.983,7.214,4.891,3.177,15.869c2.251,1.422,4.899,1.76,7.52,1.678c-1.204,1.657-2.725,3.057-3.858,4.768
		c1.379,2.158,11.747,8.541,4.501,22.555c-0.872-0.283-1.727-0.55-2.578-0.79c-3.381-7.561-11.926-16.42-12.926-17.155
		c-5.437-1.35-11.107,4.491-12.73,1.935c-1.041-0.954-0.54-2.501-0.692-3.727c2.736-1.493,6.31-1.308,8.588-3.586
		c0.529-1.417,0.283-2.932,0.033-4.37c-5.579-1.421-16.32,4.035-12.822-5.487c16.47-0.372,10.252-0.106,11.929-14.283
		C1351.8,776.16,1351.69,771.104,1354.376,767.829z"/>
	<path fill="#090E1C" enable-background="new    " d="M449.775,769.415c0.779-0.251,1.035,0.005,0.757,0.763
		C449.748,770.412,449.492,770.156,449.775,769.415z"/>
	<path fill="#090E1C" enable-background="new    " d="M1975.141,770.793c3.338,0.458,12.794,15.383,13.869,17.313
		c6.055,6.547-4.602,9.343,10.436,9.613c0.158,0.316,0.474,0.937,0.638,1.253c-0.42,0.583-0.812,1.182-1.172,1.798
		c2.632,1.068,5.368,2.033,7.711,3.706c-0.389,2.818-9.458,1.065-13.498,1.613c-13.223,5.54-1.654-0.592-15.073,5.177
		c-1.624,0.692-3.297-0.267-4.752-0.894c-1.079-0.447-0.779-1.82-1.041-2.725c4.114-0.635,10.219-2.895,9.079-6.948
		C1977.729,794.997,1975.464,777.061,1975.141,770.793z"/>
	<path fill="#090E1C" enable-background="new    " d="M1800.238,775.687c1.009,0.816,15.217,19.294,16.365,24.789
		c2.545,1.024,5.711,0.458,7.678,2.73c-1.417,1.15-3.575,2.251-3.248,4.414c-0.467,2.936,6.649,21.453,7.782,28.555
		c-6.956,2.132-17.449-21.521-19.743-25.389c-5.493-0.075-8.967,5.594-11.743,1.123c-2.516-4.117,0.144-3.872,7.498-6.174
		C1809.744,802.319,1796.88,789.051,1800.238,775.687z"/>
	<path fill="#090E1C" enable-background="new    " d="M512.323,778.096c1.93,0.135,16.631,4.711,20.702,10.043
		c0.251,2.627,0.016,5.275,0.082,7.923c1.597,1.112,3.444,1.733,5.264,2.398c-0.578,1.117-1.264,2.169-2.027,3.166
		c0.736,2.005,2.376,3.488,3.172,5.455c-0.929,5.294-10.558,10.294-16.539,9.814c0.426-4.457,7.404-2.667,2.73-14.087
		c-5.838-1.299-6.946,0.805-11.64,1.068c-0.659-1.264-1.362-2.539-1.64-3.945c0.354-1.204,1.003-2.294,1.46-3.449
		c2.43,1.117,5.504,2.637,8.043,0.992c6.269-7.264-7.892-15.593-8.746-16.593c0.207-0.278,0.621-0.834,0.828-1.106
		C513.467,779.18,512.884,778.635,512.323,778.096z"/>
	<path fill="#090E1C" enable-background="new    " d="M1424.253,785.082c1.843,0.216,12.195,3.394,17.705,6.768
		c4.661,3.003-1.226,7.94,10.207,9.155c-0.894,2.038-2.964,3.172-3.962,5.112c0,2.381,1.297,4.512,1.744,6.812
		c-0.641,6.757-8.877,19.385-11.128,20.49c-0.848-7.076,3.118-18.543-1.706-25.187c-3.613-0.861-6.915,1.183-10.234,2.24
		c-0.855-1.21-2.986-2.768-1.526-4.294c1.994-0.965,4.169-1.52,6.37-1.771c6.413-0.397,2.241-9.605-2.245-13.177
		C1427.675,789.24,1424.923,787.844,1424.253,785.082z"/>
	<path fill="#090E1C" enable-background="new    " d="M728.063,794.438c0.452-0.022,1.362-0.076,1.815-0.104
		c4.198,8.687-2.416-2.805,9.438,17.907c3.355,5.828-0.367,13.249,8.12,13.019c0.959,0.044,2.708-0.272,2.332,1.264
		c-7.102,9.156,4.181,7.079,5.248,22.675c-8.425-2.906-13.944-10.385-17.569-14.087c-3.817,4.067-9.726,7.329-15.318,7.008
		c1.079-1.891,1.292-4.043,1.161-6.169c-0.702,0.213-13.31,1.688-14.059,1.553c-2.294-1.014-4.556-3.417-3.417-6.087
		c2.524-0.79,2.625,0.729,9.727,1.133c4.374-5.396,1.07-12.984-2.561-17.95c-1.826-1.515-4.643-1.956-5.646-4.343
		c-0.027-0.861,0.496-1.613,0.752-2.387c2.706,0.181,17.559,7.839,18.561,8.283c0.725-0.027,1.411-0.316,2.125-0.463
		C728.711,814.691,726.747,799.473,728.063,794.438 M729.458,821.701c-0.469,1.597-0.757,3.248-0.752,4.926
		c0.774-0.605,1.553-1.204,2.338-1.793C730.941,823.587,730.308,822.557,729.458,821.701z"/>
	<path fill="#090E1C" enable-background="new    " d="M2531.227,807.757c33.052-5.259,22.226,4.196,32.576,4.152
		c1.531-0.169,2.954,0.305,4.185,1.264c-0.507,1.782-2.376,4.032-0.463,5.58c1.945,1.918,3.875,4.305,3.608,7.22
		c-2.571,13.299-3.148,14.852-8.141,17.977c0.136-2.158-0.207-4.272-0.708-6.343c0.425-5.809-1.335-12.506-6.621-15.661
		c-5.259-1.405-6.241,4.352-9.144,2.801c-2.185-0.916-3.7-2.888-4.316-5.128c3.208-2.606,3.126,0.208,7.869-4.485
		C2545.161,809.974,2537.526,810.034,2531.227,807.757z"/>
	<path fill="#090E1C" enable-background="new    " d="M960.255,808.35c4.15,1.356,9.744,10.658,10.822,15.204
		c0.736,3.324-0.349,6.654-0.327,9.972c1.346,1.439,3.406,1.7,5.275,1.858c-0.191,1.035-0.36,2.071-0.49,3.128
		c1.891,1.493,3.624,3.182,5.58,4.605c0.294,2.316-0.42,4.507-1.782,6.365c-1.074,0.136-2.131,0.311-3.172,0.539
		c-1.155-3.259-3.558-6.005-6.675-7.487c-16.942-0.926-17.765,4.228-19.46-1.422C968.53,846.904,959.664,814.795,960.255,808.35z"/>
	<path fill="#090E1C" enable-background="new    " d="M1043.805,812.013C1044.094,812.301,1044.094,812.301,1043.805,812.013z"/>
	<path fill="#090E1C" enable-background="new    " d="M301.868,819.554c1.193-0.627,2.452-0.005,3.629,0.343
		c-0.806,0.447-1.608,0.915-2.403,1.395C302.664,820.715,302.233,820.148,301.868,819.554z"/>
	<path fill="#090E1C" enable-background="new    " d="M648.203,819.658C648.486,819.941,648.486,819.941,648.203,819.658z"/>
	<path fill="#090E1C" enable-background="new    " d="M303.547,822.094c1.193-0.447,2.349-0.981,3.466-1.591
		c3.715,3.967,10.623,5.42,14.065,12.228c0.676,5.907-1.534,7.118,0.229,10.583c1.559,1.662,4.043,1.395,6.114,1.569
		c-1.192,3.614-6.242,3.029,0.262,9.504c4.434,3.631-3.022,12.703-8.283,16.021c-1.237,0.648-1.869-1.106-2.605-1.776
		c7.661-22.738-13.753-17.476-15.16-17.443c-0.638-0.796-1.15-1.717-1.275-2.719c0.392-0.747,0.937-1.379,1.488-1.989
		c-0.757,0.087-1.526,0.147-2.278,0.223c0.131-0.229,0.398-0.692,0.529-0.921c1.412-0.4,17.903,3.57,7.787-16.817
		C306.62,826.562,305.23,824.224,303.547,822.094z"/>
	<path fill="#090E1C" enable-background="new    " d="M1182.187,821.979c6.686-0.992,13.613,0.861,19.351,4.305
		c5.396,3.498-3.334,10.233,10.092,11.144c-0.37,0.725-0.714,1.466-1.063,2.207c2.358,2.378,5.828,3.217,0.36,10.85
		c-1.406,1.875-3.695,2.676-5.913,3.079c-0.354-3.019-1.275-5.923-3.03-8.425c-1.885,0.349-3.776,0.687-5.689,0.578
		c-4.125-0.42-7.646,3.749-11.776,2.011c-1.885-0.943-3.782,0.61-4.844,2.071c-0.817,2.245,0.185,4.61,0.975,6.725
		c2.26,5.28-0.203,16.592-0.163,22.98c-0.414,0.005-1.237,0.022-1.646,0.027c0,0-9.821-25.772-10.79-27.895
		c-7.243,0.239-4.848,1.773-9.852,1.826c-0.981-1.629-1.7-3.493-1.221-5.406c5.859-0.737,6.077,1.221,8.855-4.496
		c-3.515-3.635-4.452-8.708-5.597-13.422c27.973,16.503,7.402,17.169,29.557,13.373c3.346-0.447,5.651-3.018,3.286-10.403
		c-1.76-4.779-6.866-6.795-10.762-9.476C1182.208,823.075,1182.165,822.524,1182.187,821.979z"/>
	<path fill="#090E1C" enable-background="new    " d="M1401.611,837.428c1.192,0.785,8.87,12.87,9.569,14.141
		c3.258,6.055,0.283,7.433,9.367,8.861c-0.872,1.744-2.071,3.302-2.964,5.035c0,0,4.634,13.169,7.002,24.827
		c-8.418-4.305-16.741-21.712-17.542-22.713c-7.444-1.318-8.422,5.28-11.983-1.597c0.431-0.594,0.872-1.172,1.33-1.749
		c4.753-1.162,5.127,1.471,8.67-4.327C1400.995,852.868,1400.304,841.331,1401.611,837.428z"/>
	<path fill="#090E1C" enable-background="new    " d="M1809.643,844.284c1.005,0.45,21.084,9.153,29.421,11.88
		c-1.635,4.623-4.917,1.99-1.373,7.542c4.253,5.172,7.787,23.2,7.929,24.571c-6.417,0.813-19.224-24.492-23.672-23.481
		c-3.144,0.687-5.94,2.545-9.204,2.801c-1.095-1.221-2.038-2.545-2.975-3.864c1.422-1.385,12.208-3.931,8.953-6.071
		c-1.651-1.689-3.319-3.357-4.578-5.351C1812.471,849.744,1809.992,847.461,1809.643,844.284z"/>
	<path fill="#090E1C" enable-background="new    " d="M792.649,855.989c12.641,31.66,5.397,28.365,15.765,31.65
		c-7.389,6.411-0.319,7.73,1.738,17.253c0.273,0.174,0.812,0.523,1.084,0.698c6.467-2.96-2.187-24.412,5.64-32.238
		c10.047,32.602,2.931,28.832,12.228,32.527c-0.349,1.193-0.747,2.381-0.975,3.618c1.009,4.311,4.417,3.774,7.656,11.406
		c-6.052,1.281-16.394-9.442-17.394-10.103c-1.313-0.3-2.643-0.447-3.945-0.719c-0.801,1.183-1.613,2.365-2.605,3.406
		c-5.433-3.402-4.435,0.176-8.038-2.676c-1.411-2.741-1.504-6.076-3.727-8.397c-3.139-3.313-4.839-7.58-7.106-11.46
		c-9.518,0.079-13.557,1.721-14.386-3.553c2.812-0.349,5.64-0.343,8.463-0.071c5.914-1.495,3.512-5.266,3.335-6.267
		c-0.86-2.686-2.392-14.523-0.289-17.542C791.667,861.337,789.556,860.138,792.649,855.989z"/>
	<path fill="#090E1C" enable-background="new    " d="M2037.901,861.542c3.722-2.69,18.31,0.562,22.866,5.242
		c1.875,1.798,1.368,4.632,2.354,6.839c1.488,2.24,3.899-0.473,7.727,2.534c-0.229,0.698-0.42,1.417-0.572,2.147
		c-0.79,0.147-1.559,0.262-2.31,0.425c1.929,1.836,3.983,3.553,5.771,5.553c2.774,2.305-0.807,6.365,1.542,8.904
		c-1.804,1.232-2.218,3.449-3.134,5.286c6.06,3.859,6.559-1.675,10.332,1.771c-0.866,1.984-2.305,3.673-3.58,5.411
		c0.551,2.169,1.7,4.076,3.128,5.798c3.564,4.518,8.405,22.793,8.065,24.13c-8.103-0.182-12.271-11.386-22.762-23.16
		c-4.985-2.04-6.312,8.734-13.678,2.321c-1.046-0.801-1.046-2.36-0.687-3.493c1.286-1.569,3.488-1.727,5.237-2.561
		c1.787-0.665,3.21-1.978,4.534-3.319c-1.954-1.364-26.802-22.023-16.375-23.732c2.447-0.883,5.504-1.057,7.041-3.477
		C2054.543,872.496,2044.21,866.946,2037.901,861.542 M2052.336,888.271c3.674,3.297,9.656,6.01,12.615,4.229
		C2061.676,884.57,2058.391,882.443,2052.336,888.271z"/>
	<path fill="#090E1C" enable-background="new    " d="M1592.617,861.079c26.015-1.741,23.421,6.97,25.149,10.545
		c2.234,1.553,4.97,2.512,7.705,1.918c-0.79,1.717-3.014,2.757-3.03,4.752c2.637,5.415,4.703,1.969,4.338,10.381
		c-0.753,3.089-4.855,13.405-8.092,15.057c-1.759-4.894,1.852-16.006-7.809-22.059c-4.098,0.267-6.997,4.43-11.253,3.918
		c-0.839-1.101-2.267-2.654-1.324-4.06c2.409-1.973,6.087-1.482,8.436-3.569c2.493-2.725-0.619-9.567-6.447-12.822
		C1597.924,863.411,1594.938,862.855,1592.617,861.079z"/>
	<path fill="#090E1C" enable-background="new    " d="M1362.566,861.989c0.578,0.12,1.172,0.256,1.782,0.398
		c1.45,4.828,3.531,9.455,4.817,14.337c1.112,4.005-0.169,8.261,0.719,12.267c1.395,1.657,3.874,1.902,5.831,2.676
		c-3.979,7.55,4.461,7.11,6.714,15.76c-5.635-1.204-10.697-4.136-15.395-7.368c-9.824-6.694-16.406,4.815-17.356-4.719
		c7.381-6.066,11.058,9.302,10.648-20.19C1360.337,870.626,1362.692,866.517,1362.566,861.989z"/>
	<path fill="#090E1C" enable-background="new    " d="M2506.209,866.25c0.488,0.047,14.745,6.921,15.024,7.057
		c9.348,4.624,3.305,2.087,12.724,3.929c-0.414,1.112-0.899,2.213-1.15,3.379c0,0,5.557,7.531,12.152,21.078
		c-8.743-0.297-17.5-14.971-22.691-15.029c-2.878,1.966-4.159,5.364-10.01,1.624c-1.76-1.041-1.313-3.319-1.619-5.013
		c2.49-0.496,5.384-0.681,7.161-2.774c-0.017-1.046-1.166-1.362-1.793-1.934C2511.593,875.607,2507.343,871.661,2506.209,866.25z"/>
	<path fill="#090E1C" enable-background="new    " d="M1281.387,868.048c3.274-0.831,16.358,2.023,19.836,2.997
		c7.86,3.506,0.325,9.205,12.436,9.58c-1.15,1.292-2.556,2.387-3.444,3.891c-0.214,4.831,5.946,3.871,1.662,13.531
		c-2.518,4.79-4.986,9.901-9.346,13.313c-1.681-3.893,5.819-14.769-3.831-23.999c-3.123,0.365-5.662,2.365-8.632,3.155
		c-1.657-0.834-2.67-2.501-2.354-4.359c2.681,0.109,5.204-1.182,7.34-2.692C1300.59,875.926,1282.184,869.66,1281.387,868.048z"/>
	<path fill="#090E1C" enable-background="new    " d="M1041.996,881.726c-1.351,3.068,1.035,5.744,1.831,8.577
		c0.57,1.656,1.032,7.702-0.518,13.351c-2.779-3.428-4.989-14.2-9.629-17.454c-7.593-0.875-8.081,2.811-12.147-0.011
		C1036.01,875.132,1031.667,881.125,1041.996,881.726z"/>
	<path fill="#090E1C" enable-background="new    " d="M1943.818,910.701c4.848,3.476,16.458,23.773,17.198,24.773
		c2.283,2.485,6.19-0.055,8.534,2.305c-0.932,1.597-2.087,3.041-3.329,4.403c1.181,2.14,15.888,20.548,14.348,24.266
		c-10.977-4.091-20.316-15.419-24.827-19.263c-3.564,0.501-5.084,4.447-8.512,5.248c-3.471-0.605-5.766-4.049-5.575-7.466
		c3.493-1.346,7.585-1.569,10.294-4.469C1946.653,933.855,1941.625,919.704,1943.818,910.701z"/>
	<path fill="#090E1C" enable-background="new    " d="M453.698,913.534c0,0,3.399,2.481,11.803,7.362
		c4.926,2.29,0.36,5.22,11.237,8.261c-5.956,7.267-3.015,2.165-2.43,11.934c0.752,6.365-1.324,12.577-1.88,18.871
		c-0.42,0.937-0.398,2.937-1.798,2.768c-4.18-11.837-2.281-2.771-9.662-29.214c-4.906-0.089-8.447,1.106-8.447,1.106
		c-2.218-0.131-4.114-3.406-2.18-5.035c2.24,0.163,4.545,1.286,6.774,0.447c1.166-1.024,2.736-2.343,2.376-4.076
		C458.663,924.607,455.036,921.335,453.698,913.534 M450.832,930.852C449.993,932.487,452.63,930.923,450.832,930.852z"/>
	<path fill="#090E1C" enable-background="new    " d="M1454.301,917.262c6.974,3.461,16.675,5.795,17.149,9.155
		c1.289,4.136,0.568,5.494,8.321,6.605c-3.057,3.266-5.372,4.34-3.139,9.438c3.266,6.359-4.83,23.527-7.793,23.912
		c-1.433-0.54-1.084-2.316-1.193-3.498c0.251-11.681-1.845-17.425-5.008-22.446c-2.965,0.748-9.069,3.945-9.073,3.945
		c-1.45-0.812-2.894-2.093-3.15-3.804c0.147-5.979,15.185,2.868,8.425-15.236C1457.401,922.58,1454.432,920.602,1454.301,917.262z"
		/>
	<path fill="#090E1C" enable-background="new    " d="M1690.907,919.894c3.039,0.912,13.543,5.965,16.446,9.264
		c6.147,6.28,5.491,2.675,10.681,4.414c-1.76,1.76-3.629,3.553-4.272,6.054c2.539,20.057-1.049,12.013-2.632,26.893
		c-0.687,0.267-1.346,0.55-1.984,0.85c-3.817-10.797-3.411-21.335-6.774-25.716c-3.155-0.283-5.864,1.896-8.926,2.147
		c-1.728-1.123-2.033-3.15-1.929-5.035c9.838-3.783,12.763,0.352,2.158-13.351C1692.389,923.768,1691.528,921.855,1690.907,919.894z
		"/>
	<path fill="#090E1C" enable-background="new    " d="M1527.933,926.994c5.546-0.842,13.135,7.475,14.413,11.422
		c-0.032,7.847-4.68,6.896,4.556,11.553c-3.115,5.597,1.188,3.083,1.406,6.403c0.722,2.896-5.417,9.353-8.981,8.828
		c2.2-15.746-11.532-10.006-17.193-10.463c-0.572-1.21-1.035-2.463-1.243-3.771c5.506-1.712,14.36,3.07,11.76-13.373
		C1532.423,933.544,1528.75,930.847,1527.933,926.994z"/>
	<path fill="#090E1C" enable-background="new    " d="M1054.949,931.37c20.935,10.363,11.593,10.912,22.844,13.781
		c-6.695,16.157,1.429-0.885-2.937,24.827c-0.392,2.142-0.436,4.419-1.569,6.348c-0.352-1.001-6.756-21.636-9.482-27.1
		c-3.548-0.545-6.545,2.474-10.076,1.559c-1.21-0.817-1.989-2.076-2.741-3.275c2.683-3.789,7.198,2.292,10.534-5.831
		C1058.922,938.52,1056.497,935.179,1054.949,931.37z"/>
	<path fill="#090E1C" enable-background="new    " d="M1362.784,932.013c9.12,2.669,7.458,6.721,18.811,10.054
		c-3.55,6.834,4.711,10.438,4.992,21.133c-3.237-1.525-12.42-13.821-14.839-16.386c-2.897,0.799-2.119-1.154-9.155,1.248
		c-1.64-0.926-2.697-2.452-3.15-4.256C1373.342,941.924,1362.693,936.035,1362.784,932.013z"/>
	<path fill="#090E1C" enable-background="new    " d="M774.448,953.32c6.005,0.982,11.35,28.991,11.754,29.993
		c1.662,2.06,4.441,2.12,6.866,2.24c-0.828,1.428-2.093,2.578-2.752,4.103c0.259,4.446,7.913,9.721,7.771,14.784
		c-3.88-0.12-6.681-3.084-10.207-4.218c-0.009-0.006-9.825-8.267-9.825-8.267c-6.526-1.099-8.345,2.07-12.103,1.973
		c-1.161-1.003-1.896-2.392-2.398-3.804c0.607-2.449,6.778-1.001,9.722-2.338c5.063-1.474,0.819-8.037,0.561-11.242
		c-0.529-2.316,0.523-4.665-0.082-6.97C772.584,964.956,774.448,965.072,774.448,953.32z"/>
	<path fill="#090E1C" enable-background="new    " d="M150.872,960.464c2.296-2.703,14.084,2.616,17.187,6.174
		c3.84,4.49-4.845,9.944,4.354,12.877c-1.746,9.067,8.849,6.967-2.855,15.433c-1.526,1.406-3.537,2.109-5.558,2.43
		c0.274-1.764,4.604-9.663-1.368-14.441c-4.488-2.365-8.265,0.457-12.147-2.06c0.022-0.43,0.071-1.292,0.098-1.722
		c1.722-0.267,3.466-0.033,5.193-0.164c1.58-0.572,3.39-1.542,3.994-3.166C159.913,967.045,160.295,966.648,150.872,960.464z"/>
	<path fill="#090E1C" enable-background="new    " d="M1140.51,969.238c3.188,3.52,7.248,6.06,10.768,9.226
		c3.605,3.087,1.811,5.858,9.651,8.027c-5.884,6.143-1.921,8.471-2.202,15.078c-0.458,5.199-1.09,10.386-1.221,15.612
		c-5.309-3.387-8.862-25.859-11.084-27.933c-5.419-1.216-5.081,1.406-11.433-0.752c0.42-1.052,0.643-2.283,1.569-3.03
		c2.011-0.42,4.136,0.131,6.136-0.43C1146.064,981.034,1143.702,982.956,1140.51,969.238z"/>
	<path fill="#090E1C" enable-background="new    " d="M1908.555,977.303c0.054,0.556,0.136,1.123,0.245,1.7
		c0.572-0.196,1.15-0.387,1.777-0.556c11.421,7.426,15.669,7.929,17.58,11.662c4.952,8.412,5.6,3.967,10.479,5.891
		c-0.065,0.719-0.098,1.449-0.109,2.196c-1.804,1.27-3.891,2.381-4.932,4.419c0.959,2,2.272,3.907,2.73,6.12
		c-0.047,1-2.756,20.466-5.814,22.92c-5.072-5.611-2.615-15.603-9.613-27.285c-2.768,0.223-5.308,1.499-7.972,2.114
		c-2.55,0.128-5.837-5.631-3.139-6.937c3.079-0.986,6.844-0.027,9.242-2.708C1906.424,977.355,1907.154,981.278,1908.555,977.303z"
		/>
	<path fill="#090E1C" enable-background="new    " d="M1267.96,979.859c13.815,12.133,12.831,20.142,13.563,25.285
		c1.428,2.447,4.261,3.379,6.883,3.94c-0.594,1.123-1.188,2.24-1.771,3.373c0.857,1,11.415,11.703,8.354,14.152
		c-8.141-2.951-14.17-11.883-26.212-11.907c-2.349,0.076-4.894,2-7.068,0.381c-0.115-0.687-0.18-1.362-0.196-2.027
		c7.211-2.451,11.601,2.138,7.869-17.569C1268.202,983.164,1265.181,985.783,1267.96,979.859z"/>
	<path fill="#090E1C" enable-background="new    " d="M1800.488,981.303c0.714,0.196,1.46,0.409,2.229,0.621
		c2.585,8.611,6.626,25.132,7.384,28.647c2.469,0.877,5.079,1.204,7.618,1.847c-2.323,4.319-7.616,0.79-3.766,16.168
		c0.003,0.01,3.199,21.563,3.199,21.563c-7.972,1.671-15.596-21.829-17.781-29.601c-2.948,1.482-5.869,3.063-8.506,5.052
		c-5.037-5.191-4.679-9.546-2.567-10.866c5.695-1.151,8.052,1.732,10.686-2.3C1795.654,1000.61,1796.763,989.862,1800.488,981.303z"
		/>
	<path fill="#090E1C" enable-background="new    " d="M2336.537,981.368c3.206,1.147,18.368,12.598,21.023,15.983
		c2.289,3.15,6.801,1.019,9.438,3.695c-2.789,9.089-1.953,4.497,3.395,13.803c6.824,14,6.719,14.243,8.506,16.157
		c-2.503,2.214-1.195,7.289-19.236-11.989c-5.3-5.627-4.918-7.883-8.447-6.915c-6.979,4.369-7.527,2.004-11.482-3.498
		c2.6-4.326-0.099-1.065,8.512-5.024C2345.553,1000.875,2335.497,986.633,2336.537,981.368z"/>
	<path fill="#090E1C" enable-background="new    " d="M658.922,985.095c0.414-0.005,1.248-0.016,1.667-0.022
		c-0.071,5.602,2.61,10.866,2.267,16.495c0.719,8.46-7.388,10.594,3.161,17.051c1.926,6.691,0.82,2.675,4.703,6.97
		c-0.076,0.267-0.229,0.796-0.305,1.063c-9.205-1.552-12.663-5.091-21.781-6.038c-2.719-0.114-5.041,2.779-7.744,1.771
		c-2.283-2.098-3.575-5.411-2.561-8.457c2.854,0.232,14.835,7.367,12.621-4.975c-0.463-1.139,0.638-1.984,1.073-2.915
		c1.177-2,0.975-4.359,0.992-6.572c0.61-1.559,1.466-3.019,2.338-4.436c1.101-0.425,2.142,0.305,3.068,0.817
		C660.614,989.203,656.738,991.352,658.922,985.095z"/>
	<path fill="#090E1C" enable-background="new    " d="M844.473,995.575c0.196-2.67-0.022-5.58,1.929-7.695
		c2.922,6.278,11.723,22.868,13.918,24.353c1.951,0.48,4.016,0.136,5.989-0.153c-2.232,3.902-3.851,3.899,2.894,11.482
		c0.539,0.796,1.51,2.049,0.643,2.948c-7.388-1.391-14.912-12.027-22.086-7.749c-1.439,0.545-3.122,2.104-4.616,0.872
		c-1.716-0.877-2.376-2.817-2.234-4.637c1.493,0.251,2.883,0.965,4.398,1.139c2.578-0.43,4.447-2.823,4.953-5.297
		C843.387,1000.286,848.901,1009.224,844.473,995.575z"/>
	<path fill="#090E1C" enable-background="new    " d="M2245.211,991.749c2.816,2.453,10.763,12.095,15.803,26.838
		c2.458-0.3,5.084-0.447,7.27,0.981c-0.376,1.787-0.747,3.782-2.567,4.67c1.854,5.724,9.755,8.483,17.002,24.691
		c-0.245,0.621-0.648,1.172-1.03,1.706c-5.078,2.687-24.874-17.792-28.184-18.424c-1.45,1.014-3.035,1.804-4.665,2.452
		c-0.104,0.425-0.185,0.861-0.24,1.308c-1.253-0.213-2.529-0.213-3.766-0.115c-10.396-10.857,3.285-7.665,5.357-12.528
		C2249.994,1022.328,2240.865,1001.746,2245.211,991.749z"/>
	<path fill="#090E1C" enable-background="new    " d="M894.77,993.983c0.332-0.202,0.997-0.599,1.33-0.796
		c27.794,13.03,3.849,26.628,20.811,26.784c-0.425,0.921-0.883,1.826-1.319,2.752c5.501,6.532-2.385,12.853-6.97,13.476
		c-0.725-1.94-2.85-8.212-3.411-9.389c-2.207,0.523-4.327-0.621-6.528-0.387c-3.542-0.371-6.523,2.033-9.749,2.959
		c-4.295-0.856-3.428-5.426-4.392-8.18c0.43,0.065,0.877,0.136,1.335,0.202c0.322-0.708,0.638-1.406,1.074-2.038
		c2.992,0.812,5.869,2.272,9.051,2.24c0.916-0.267,1.771-0.73,2.659-1.09C900.784,1011.337,898.534,1002.715,894.77,993.983z"/>
	<path fill="#090E1C" enable-background="new    " d="M503.26,1005.514c0.997-0.245,2.016-0.425,3.035-0.616
		c0.038,0.48,0.12,1.45,0.158,1.935C505.369,1006.424,504.29,1006.01,503.26,1005.514z"/>
	<path fill="#090E1C" enable-background="new    " d="M508.138,1005.203c0.969,0.2,9.622,2.351,10.654,2.981
		c2.858,3.057,1.207,6.762,10.06,8.741c-0.387,0.867-0.779,1.738-1.172,2.616c0.975,2.191,7.468,9.417-3.455,25.579
		c-0.681,0.115-1.357,0.196-2.038,0.262c-0.309-6.002,2.315-18.592-5.117-24.5c-7.634-0.975-1.802,1.217-11.188-0.986
		c-0.022-0.883-0.027-1.755-0.027-2.605c1.477,0.06,3.319,1.057,4.479-0.332c1.439-1.003,1.428-2.872,1.738-4.414
		c-1.139-1.253-2.202-2.556-3.281-3.847c0.332-0.501,0.659-1.003,0.997-1.488c-0.425-0.12-1.281-0.354-1.706-0.474
		C508.099,1006.353,508.127,1005.585,508.138,1005.203z"/>
	<path fill="#090E1C" enable-background="new    " d="M2089.201,1007.89c3.224,1.568,7.45,10.769,8.92,13.907
		c2.508,5.539-0.08,8.994,3.057,11.422c1.858,0.082,3.913,0.223,5.144,1.869c-0.725,0.779-1.4,1.58-2.043,2.414
		c0.071,0.621,0.185,1.27,0.272,1.913c5.576,4.893,10.306,6.934,10.986,12.375c-7.553-0.371-22.858-8.574-24.958-8.812
		c-2.3,0.714-4.43,2.441-6.932,2.152c-1.962-1.373-2.752-3.695-3.531-5.825c3.112-0.883,6.474-1.101,9.242-2.953
		C2088.108,1033.076,2087.18,1016.05,2089.201,1007.89z"/>
	<path fill="#090E1C" enable-background="new    " d="M503.157,1017.966c0.414,0.038,1.242,0.12,1.657,0.164
		c-0.305,0.572-0.605,1.155-0.937,1.733C503.636,1019.214,503.397,1018.582,503.157,1017.966z"/>
	<path fill="#090E1C" enable-background="new    " d="M938.126,1036.766c2.629-2.426,15.823,6.349,18.555,9.842
		c2.054,2.523,0.196,5.918,1.046,8.752c1.52,1.706,4.152,2.005,6.294,1.384c-1.215,1.482-2.261,3.095-3.21,4.757
		c8.016,9.15-3.436,18.731-5.716,20.19c-0.354-0.169-1.063-0.507-1.417-0.681c0-2.52,1.776-13.711-2.806-17.089
		c-7.85-0.762-8.454,2.464-12.844,3.144c-4.288-4.089-2.1-5.338-1.063-7.645c10.752-0.28,5.171,1.48,10.806-1.351
		C948.032,1049.394,947.516,1046.22,938.126,1036.766z"/>
	<path fill="#090E1C" enable-background="new    " d="M1792.734,1050.145c6.847-2.37,21.568,4.792,20.996,10.773
		c0.081,7.754-0.89,4.009,7.417,7.133c-0.965,1.689-2.512,2.894-3.809,4.3c2.732,4.368,7.631,5.466,6.283,12.61
		c-0.349,4.485-2.147,8.653-2.937,13.046c-2.9,1.559-3.991-1.103-4.774-4.943c-1.421-6.737-7.626-16.785-11.406-16.299
		c-4.582,0.4-8.518,7.414-12.016-0.708c-1.275-4.233,9.329-1.56,10.844-6.997C1802.129,1054.758,1794.56,1055.335,1792.734,1050.145
		z"/>
	<path fill="#090E1C" enable-background="new    " d="M2116.279,1050.193C2116.546,1050.477,2116.546,1050.477,2116.279,1050.193z"
		/>
	<path fill="#090E1C" enable-background="new    " d="M765.054,1055.981c2.923-1.503,15.339,4.438,22.184,4.103
		c-0.926,1.575-2.152,2.943-3.221,4.425c-0.692,2.469,0.027,5.057,0.741,7.455c0.915,6.459-3.197,21.032-5.411,23.868
		c-1.576-3.916-4.992-27.021-7.754-29.345c-3.896,0.06-7.438,1.695-11.133,2.692c-0.763-0.785-1.629-1.482-2.163-2.43
		c-0.207-0.948-0.18-1.913-0.223-2.85c5.709,1.591,9.098,0.336,10.605-5.526C767.026,1058.297,765.724,1057.512,765.054,1055.981z"
		/>
	<path fill="#090E1C" enable-background="new    " d="M557.945,1059.763c6.327,14.854,2.906,21.621,2.959,24.097
		c0.038,1.651-0.583,3.804,1.025,4.943c1.084,1.308,2.921,1.27,4.452,1.662c-6.684,6.487,0.79,7.828,0.719,12.833
		c-0.649,0.256-1.292,0.534-1.929,0.828c-6.07-3.722-15.253-10.397-15.253-10.397c-2.377-0.301-18.575,3.492-11.46-7.384
		c2.834,1.526,5.929,2.736,9.182,2.872C551.893,1084.56,549.329,1068.521,557.945,1059.763z"/>
	<path fill="#090E1C" enable-background="new    " d="M715.35,1078.901c2.906-0.239,18.48,4.842,19.503,5.357
		c3.155,2.842,2.481,7.812,9.711,8.397c-0.572,1.199-1.433,2.332-1.602,3.684c1.807,6.987,4.483,3.403-1.297,15.634
		c-3.754,6.937-4.722,6.359-7.705,6.882c0.463-2.485,2.016-4.654,2.294-7.16c-1.548-3.155-0.381-6.676-0.932-10
		c-0.109-1.657-1.014-3.084-1.46-4.632c-6.661-0.549-1.785-1.854-9.406,1.847c-2.556-1.558-3.477-4.414-4.387-7.073
		c1.924-0.409,3.651,0.534,5.428,1.101c0.943-0.136,1.945-0.3,2.768-0.828c0.872-1.155,1.422-2.507,2.087-3.771
		c-3.041-3.984-8.479-4.376-11.978-7.733C717.426,1079.849,715.731,1080.312,715.35,1078.901z"/>
	<path fill="#090E1C" enable-background="new    " d="M1246.691,1129.068c-0.431,0.915-0.872,1.836-1.302,2.768
		c6.43,10.717,2.6,25.203,1.602,27.77c-0.403-0.005-1.215-0.011-1.619-0.016c-4.921-10.85-3.116-15.715-10.479-25.013
		c-3.112,0.425-5.929,1.995-9.051,2.278c-0.79-1.041-1.526-2.104-2.278-3.144c1.994-2.174,5.073-2.752,7.106-4.872
		c-1.629-2.37-4.294-3.717-7.122-3.945C1233.727,1125.244,1227.91,1120.044,1246.691,1129.068z"/>
	<path fill="#090E1C" enable-background="new    " d="M1418.438,1124.784c6.694-3.444,11.865,1.216,19.541,1.673
		c2.99,0.303,0.594,1.842-1.259,3.984c2.372,12.807,3.116-3.69,1.515,26.947c-0.022,1.128-0.768,2.043-1.226,3.041
		c-4.988-1.512-6.402-17.691-11.395-26.435c-8.435-0.242-8.969,2.774-13.089-0.12c-0.016-1.286,0.054-2.556,0.153-3.82
		c3.052-0.796,7.111-0.071,8.877-3.362C1420.504,1126.054,1419.458,1125.422,1418.438,1124.784z"/>
	<path fill="#090E1C" enable-background="new    " d="M1112.021,1124.953c6.047,5.365,9.381,26.246,11.939,28.778
		c1.711,0.812,3.64,0.943,5.455,1.493c-0.185,1.014-0.381,2.038-0.572,3.073c2.316,1.94,4.294,4.229,6.452,6.349
		c-0.087,0.305-0.256,0.921-0.343,1.226c-11.778,0.549-12.647-2.911-17.656-2.812c-12.05,0.56-10.094,3.928-14.25-1.782
		c0.207-0.752,0.414-1.493,0.632-2.218c13.949-4.067,6.61,2.173,6.528-22.391C1110.554,1132.73,1110.827,1128.741,1112.021,1124.953
		z"/>
	<path fill="#090E1C" enable-background="new    " d="M549.52,1129.498c7.202,3.62,1.808,1.126,13.247,4.735
		c3.864,1.149-0.198,5.038,11.264,4.632c-10.284,11.473,0.396,5.848-12.414,19.264c-2.703,2.539-4.806,5.765-8.07,7.673
		c2.549-5.674,7.167-11.511,4.643-20.582c-8.852,1.883-6.635,6.846-11.678,0.954c-0.79-0.785-0.948-1.88-1.079-2.915
		c5.062-2.195,11.228,0.361,10.555-5.891c-2.783-4.512-6.033-6.014-7.035-6.686C549.095,1130.386,549.378,1129.792,549.52,1129.498z
		"/>
	<path fill="#090E1C" enable-background="new    " d="M1017.572,1134.675c0.523-0.049,1.052-0.087,1.602-0.115
		c7.753,13.335,8.606,22.818,9.596,25.846c1.337,3.099,3.705,1.559,7.411,3.591c-0.55,1.123-1.177,2.207-1.831,3.281
		c3.608,7.117,11.532,9.422,9.858,16.234c-15.321-5.135-23.133-11.656-23.133-11.656c-4.087-0.921-8.07,0.932-12.141,0.915
		c-1.046-1.133-1.755-2.501-2.131-3.973c3.764-3.183,6.725,0.444,11.291-5.324
		C1015.354,1159.682,1013.771,1143.571,1017.572,1134.675z"/>
	<path fill="#090E1C" enable-background="new    " d="M803.096,1172.412c0.18-0.055,0.539-0.163,0.719-0.218
		c0.394,0.632,5.549,16.071,6.256,20.566c3.188,12.892,1.48,7.135,8.011,10.212c-0.918,5.134-1.861,3.066,6.283,11.395
		c-0.845,0.431-1.657,0.937-2.545,1.27c-3.09-0.567-6.18-1.439-8.959-2.921c-18.213-9.127-13.143,1.906-19.956-5.226
		c3.979-4.361,11.111,0.333,8.338-9.765C798.88,1189.861,798.858,1177.219,803.096,1172.412z"/>
	<path fill="#090E1C" enable-background="new    " d="M583.982,1203.68c2.015,0.302,11.811,5.04,15.356,9.575
		c2.511,2.197,2.166,4.481,9.051,3.526c-6.104,12.568,1.24,11.88-4.665,29.754c-7.578-7.102-3.642-8.089-5.498-10.893
		c-3.358-5.071,0.301-4.317-3.073-11.237c-2.496,1.455-4.828,3.172-7.013,5.063c-7.911-9.738-0.39-5.87,2.975-8.027
		c0.79-1.411,1.624-2.866,1.885-4.474C592,1216.083,585.046,1212.367,583.982,1203.68z"/>
	<path fill="#090E1C" enable-background="new    " d="M924.192,1241.973c10.499,26.606,0.832,31.192,12.632,31.1
		c0.218,0.507,0.447,1.03,0.692,1.569c-0.431,1.014-0.954,2.016-1.161,3.128c2.094,4.495,4.059,4.833,5.76,8.675
		c-8.32,1.971-16.673-4.013-20.566-5.248c-5.163-0.669-12.499,5.333-13.187-3.826c0.812-0.627,1.586-1.319,2.512-1.776
		c8.367-1.585,8.841,3.677,7.471-17.389C918.222,1256.82,920.071,1244.352,924.192,1241.973z"/>
	<path fill="#090E1C" enable-background="new    " d="M768.154,1245.989c2.37,1.264,10.576,12.977,9.575,19.841
		c0,1.978-0.708,4.272,0.578,6.016c1.973,1.281,4.398,1.509,6.588,2.278c1.461,8.072,6.487,5.352,3.188,13.525
		c-2.052-0.369-13.003-4.062-14.005-4.409c-9.195-3.305-19.967,6.741-19.454-5.651c12.15-5.016,11.184,5.428,11.138-20.462
		C765.745,1255.912,762.517,1242.944,768.154,1245.989z"/>
	<path fill="#090E1C" enable-background="new    " d="M786.312,1349.413c9.021-1.008,16.604,1.976,19.574,3.869
		c3.992,3.12,1.456,2.294,4.147,10.561c3.584,1.714,13.383-0.632,7.88,13.52c-1.008,1.264-2.267,2.316-3.199,3.657
		c-1.221-0.142-2.447-0.251-3.656-0.316c-0.758-1.907-1.259-3.945-2.371-5.678c-0.458-0.016-0.894,0.033-1.319,0.142
		c-0.251-0.191-0.485-0.371-0.703-0.529c-0.289,0.283-0.572,0.583-0.839,0.905c-0.262-0.42-0.523-0.812-0.774-1.182
		c-2.692,1.003-5.716,0.152-8.283,1.558c-7.147,3.453-9.23-4.509-9.76-5.509c2.305-2.431,6.043-3.362,9.313-2.888
		c1.558-2.147,0.523-4.85-0.556-6.943c-0.599-0.403-1.281-0.594-1.918-0.823c0.202-0.076,0.61-0.229,0.812-0.305
		c-0.452-0.567-0.905-1.106-1.341-1.64c-1.001-0.354-6.452-3.181-8.234-5.313C785.505,1351.462,785.93,1350.437,786.312,1349.413z"
		/>
	<path fill="#090E1C" enable-background="new    " d="M795.875,1377.139C796.164,1377.412,796.164,1377.412,795.875,1377.139z"/>
</g>
</svg>
